<?xml version="1.0" encoding="utf-8"?>
<!-- Generator: Adobe Illustrator 16.0.0, SVG Export Plug-In . SVG Version: 6.00 Build 0)  -->
<!DOCTYPE svg PUBLIC "-//W3C//DTD SVG 1.1//EN" "http://www.w3.org/Graphics/SVG/1.1/DTD/svg11.dtd">
<svg version="1.1" id="Layer_1" xmlns="http://www.w3.org/2000/svg" xmlns:xlink="http://www.w3.org/1999/xlink" x="0px" y="0px"
	 width="197.0078px" height="197px" viewBox="0 0 197.0078 197" enable-background="new 0 0 197.0078 197" xml:space="preserve">
<g>
	<path fill="#D5374A" stroke="#000000" stroke-width="0.5" stroke-miterlimit="10" d="M50.0283,46.4053
		c1.1567-1.542,2.7832-2.8906,4.8784-4.0469c2.0947-1.1562,4.4551-2.0703,7.0811-2.7461c2.6255-0.6738,5.3115-1.0117,8.0576-1.0117
		c4.5278,0,8.4058,0.5908,11.6333,1.7705c3.2275,1.1816,5.6963,2.8447,7.4072,4.9863c1.71,2.1436,2.5645,4.6611,2.5645,7.5518
		c0,2.0703-0.6738,4.1426-2.0225,6.2148c-1.3486,2.0703-3.3721,3.5156-6.0693,4.334c-0.5312,0.1943-0.8076,0.4473-0.8311,0.7598
		c-0.0254,0.3135,0.2275,0.5664,0.7578,0.7578c2.0234,0.6758,3.7686,1.627,5.2402,2.8555c1.4678,1.2275,2.6006,2.6143,3.3955,4.1543
		c0.7959,1.543,1.1924,3.2051,1.1924,4.9863c0,3.71-0.8926,6.8047-2.6729,9.2861c-1.7832,2.4805-4.457,4.335-8.0215,5.5635
		c-3.5664,1.2295-8.0459,1.8418-13.4409,1.8418c-2.9385,0-5.8062-0.4209-8.5991-1.2646c-2.7944-0.8418-5.2998-1.9971-7.5156-3.4668
		c-2.2158-1.4707-3.9507-3.1436-5.2031-5.0225c-0.3374-0.5312-0.4458-1.0361-0.3252-1.5176
		c0.1201-0.4805,0.4229-0.8672,0.9033-1.1562l7.2993-5.0586c0.4805-0.29,0.8789-0.4336,1.1919-0.4336s0.5654,0.1201,0.7588,0.3613
		c1.4932,1.4941,2.8418,2.6973,4.0469,3.6133c1.2031,0.916,2.4565,1.5889,3.7573,2.0234c1.3013,0.4336,2.8184,0.6504,4.5527,0.6504
		c2.2637,0,4.022-0.4697,5.2739-1.4092c1.252-0.9385,1.8799-2.1807,1.8799-3.7217c0-1.1562-0.3135-2.167-0.9395-3.0352
		c-0.627-0.8652-1.5186-1.5537-2.6738-2.0605c-1.1562-0.5049-2.5063-0.7812-4.0469-0.8301l-6.0703-0.1445
		c-1.0107,0-1.5171-0.4082-1.5171-1.2285v-8.7432c0-0.6748,0.5063-1.083,1.5171-1.2285l4.8423-0.2891
		c1.5405-0.0967,2.854-0.3975,3.938-0.9033s1.9258-1.167,2.5293-1.9883c0.6016-0.8184,0.9033-1.7559,0.9033-2.8184
		c0-0.8174-0.2646-1.5645-0.7959-2.2393c-0.5293-0.6729-1.2402-1.2031-2.1309-1.5908c-0.8921-0.3838-1.8911-0.5762-2.998-0.5762
		c-2.0737,0-3.9282,0.3848-5.5649,1.1562c-1.6382,0.7715-3.4453,2.0938-5.4194,3.9727c-0.3379,0.3398-0.6147,0.5195-0.8315,0.543
		c-0.2163,0.0254-0.5176-0.1309-0.9028-0.4688l-7.0098-6.5039C49.5464,47.7549,49.5464,47.1279,50.0283,46.4053z"/>
	<path fill="#D5374A" stroke="#000000" stroke-width="0.5" stroke-miterlimit="10" d="M108.7344,40.1338c1.6826,0,3.4346,0,5.2568,0
		c1.8213,0,3.5381,0,5.1494,0c1.6133,0,2.9326,0.0244,3.96,0.0703c6.2607,0.1875,11.4346,1.4023,15.5205,3.6436
		c4.0879,2.2432,7.1377,5.2676,9.1475,9.0752c2.0059,3.8086,3.0117,8.1875,3.0117,13.1396c0,4.999-1.0273,9.4717-3.082,13.4189
		c-2.0566,3.9482-5.1406,7.043-9.251,9.2842c-4.1123,2.2441-9.249,3.3652-15.416,3.3652h-18.4316
		c-1.3545,0-2.0303-0.7012-2.0303-2.1035V41.8857c0-0.6533,0.1396-1.1094,0.4199-1.3662c0.2793-0.2568,0.7695-0.3857,1.4717-0.3857
		C105.6289,40.1338,107.0527,40.1338,108.7344,40.1338z M118.4746,52.1172v27.96c0,0.7012,0.3281,1.0508,0.9834,1.0508h0.4893
		c2.9424,0,5.4668-0.4902,7.5684-1.4707c2.1025-0.9814,3.7256-2.5928,4.8711-4.8359c1.1436-2.2422,1.7158-5.209,1.7158-8.9004
		c0-3.2695-0.4678-5.9902-1.4014-8.1621c-0.9336-2.1729-2.3838-3.8203-4.3457-4.9414c-1.9609-1.1211-4.4609-1.6816-7.4971-1.6816
		h-1.6816C118.709,51.1357,118.4746,51.4629,118.4746,52.1172z"/>
	<path fill="#D5374A" stroke="#000000" stroke-width="0.5" stroke-miterlimit="10" d="M57.8545,152.9629
		c-3.5659-2.2402-6.3169-5.4189-8.2544-9.5391c-1.9375-4.1172-2.9058-8.9473-2.9058-14.4883c0-5.5859,0.9907-10.4531,2.9717-14.5967
		c1.9819-4.1426,4.7544-7.3584,8.3198-9.6465c3.5664-2.2871,7.7266-3.4326,12.4814-3.4326c4.7544,0,8.9038,1.1455,12.4478,3.4326
		c3.5439,2.2881,6.2939,5.5039,8.2549,9.6465c1.957,4.1436,2.9385,9.0107,2.9385,14.5967c0,5.541-0.9678,10.3584-2.9053,14.4531
		c-1.9365,4.0938-4.6787,7.2734-8.2217,9.5381c-3.5449,2.2646-7.7168,3.3965-12.5142,3.3965
		C65.6245,156.3232,61.4199,155.2031,57.8545,152.9629z M76.5752,141.4355c1.21-2.4062,1.8164-6.502,1.8164-12.2832
		c0-5.9727-0.6172-10.2617-1.8496-12.8613c-1.2324-2.6025-3.2578-3.9023-6.0747-3.9023c-2.8613,0-4.9189,1.2998-6.1743,3.9023
		c-1.2544,2.5996-1.8823,6.8887-1.8823,12.8613c0,5.7812,0.6045,9.877,1.8169,12.2832c1.21,2.4121,3.29,3.6143,6.2397,3.6143
		C73.3291,145.0498,75.3643,143.8477,76.5752,141.4355z"/>
	<path fill="#D5374A" stroke="#000000" stroke-width="0.5" stroke-miterlimit="10" d="M147.418,154.124
		c-0.2588,0.4443-0.666,0.665-1.2275,0.665h-13.5957c-0.9805,0-1.6104-0.4902-1.8916-1.4707l-6.5869-18.0801
		c-0.2803-0.7461-1.0049-1.1201-2.1719-1.1201h-3.2236c-0.3271,0-0.5488,0.1045-0.665,0.3145
		c-0.1172,0.21-0.1748,0.3623-0.1748,0.4551v17.8701c0,1.3555-0.7715,2.0312-2.3125,2.0312h-11.7734
		c-0.7012,0-1.1807-0.1387-1.4365-0.4199c-0.2578-0.2793-0.3848-0.7236-0.3848-1.3301v-48.6348
		c0-1.0742,0.4434-1.6113,1.3311-1.6113h23.4062c6.7715,0,12.0273,1.2969,15.7656,3.8887c3.7373,2.5938,5.6074,6.25,5.6074,10.9678
		c0,2.1973-0.3984,4.2295-1.1924,6.0967c-0.7939,1.8691-1.8818,3.4688-3.2588,4.8008c-1.3789,1.3311-2.9541,2.3477-4.7285,3.0479
		c-0.4688,0.1865-0.5615,0.6309-0.2832,1.3311l8.8301,19.6221C147.6855,153.1543,147.6738,153.6807,147.418,154.124z
		 M130.1787,122.2754c0.9561-0.9346,1.4355-2.1504,1.4355-3.6445c0-1.7754-0.5957-3.1299-1.7861-4.0645
		c-1.1914-0.9336-2.584-1.4014-4.1699-1.4014h-6.168c-1.0752,0-1.6094,0.4678-1.6094,1.4014v7.6387
		c0,0.9805,0.3965,1.4717,1.1895,1.4717h7.0088C127.8535,123.6768,129.2188,123.209,130.1787,122.2754z"/>
</g>
<g>
	<path d="M103.5938,6.7422c0.2964-0.2451,0.5859-0.4385,0.8687-0.5801c0.2827-0.1426,0.5708-0.2373,0.8647-0.2861
		s0.604-0.0576,0.9307-0.0273c0.5654,0.0537,1.0439,0.1973,1.4355,0.4316c0.3921,0.2334,0.6855,0.5264,0.8813,0.8779
		c0.1958,0.3525,0.2744,0.7354,0.2354,1.1494c-0.0439,0.4619-0.2236,0.8545-0.5391,1.1787
		c-0.3159,0.3242-0.7251,0.5508-1.2275,0.6797c-0.0908,0.0234-0.1367,0.043-0.1382,0.0596c-0.0015,0.0156,0.0405,0.04,0.126,0.0713
		c0.3188,0.1113,0.6104,0.2812,0.874,0.5107c0.2632,0.2295,0.4658,0.5078,0.6079,0.835s0.1938,0.6934,0.1553,1.0996
		c-0.042,0.4463-0.2002,0.8486-0.4756,1.208c-0.2749,0.3604-0.6602,0.6309-1.1553,0.8135
		c-0.4956,0.1826-1.0977,0.2402-1.8062,0.1729c-0.3667-0.0342-0.7056-0.1045-1.0171-0.21s-0.6006-0.2559-0.8672-0.4502
		c-0.2671-0.1934-0.5273-0.4395-0.7803-0.7363c-0.022-0.0264-0.0322-0.0449-0.0308-0.0566c0.001-0.0127,0.019-0.0322,0.0537-0.0615
		l0.2734-0.2148c0.0435-0.0361,0.0728-0.0479,0.0874-0.0342c0.0151,0.0137,0.0293,0.0283,0.0439,0.0459
		c0.2158,0.2695,0.4443,0.4883,0.6855,0.6553c0.2412,0.168,0.5005,0.2969,0.7773,0.3867c0.2764,0.0908,0.5703,0.1504,0.8809,0.1797
		c0.8281,0.0781,1.4849-0.0449,1.9692-0.3682c0.4844-0.3242,0.7539-0.7725,0.8081-1.3467c0.0435-0.4609-0.0498-0.8584-0.2793-1.1895
		c-0.23-0.3311-0.5391-0.5928-0.9263-0.7861c-0.3877-0.1934-0.7964-0.3105-1.2266-0.3506l-1.0752-0.1016
		c-0.0718-0.0068-0.105-0.0381-0.0996-0.0938l0.0293-0.3105c0.0054-0.0557,0.0439-0.0801,0.1152-0.0732l0.8721,0.082
		c0.478,0.0449,0.918,0.0039,1.3193-0.123c0.4019-0.126,0.73-0.3223,0.9839-0.5879s0.3979-0.5771,0.4316-0.9355
		c0.0303-0.3184-0.0342-0.6143-0.1934-0.8857c-0.1592-0.2725-0.397-0.5-0.7134-0.6826c-0.3159-0.1826-0.6895-0.2939-1.1191-0.335
		c-0.4385-0.041-0.8545,0.0039-1.2485,0.1357s-0.7563,0.3301-1.0869,0.5967c-0.0347,0.0283-0.0659,0.042-0.0938,0.0391
		c-0.0283-0.0029-0.0605-0.0215-0.0972-0.0576l-0.1274-0.1807C103.5371,6.834,103.5415,6.7861,103.5938,6.7422z"/>
	<path d="M115.3154,7.2256c0.1289,0.0283,0.2749,0.0635,0.438,0.1035s0.313,0.0752,0.4497,0.1055
		c0.1362,0.0303,0.2207,0.0488,0.252,0.0566c1.0913,0.25,1.9346,0.6055,2.5293,1.0645c0.5942,0.46,0.9731,1.0332,1.1362,1.7207
		s0.1387,1.5078-0.0728,2.4609c-0.2285,1.0312-0.5835,1.8369-1.0649,2.4189c-0.4814,0.5811-1.1035,0.9492-1.8672,1.1035
		s-1.6802,0.1133-2.7505-0.124l-1.1948-0.2656c-0.0703-0.0156-0.0967-0.0625-0.0796-0.1406l1.8765-8.458
		c0.0083-0.0391,0.0249-0.0664,0.0488-0.0811c0.0234-0.0156,0.0552-0.0186,0.0942-0.0098
		C115.1182,7.1816,115.1865,7.1973,115.3154,7.2256z M115.3892,7.918l-1.6577,7.4746c-0.0156,0.0703,0.019,0.1152,0.1055,0.1338
		l0.5854,0.1299c1.0078,0.2236,1.8462,0.2764,2.5156,0.1582c0.6694-0.1172,1.2056-0.4307,1.6094-0.9395s0.71-1.2314,0.9175-2.1689
		c0.2271-1.0225,0.252-1.8467,0.0752-2.4717s-0.5474-1.1152-1.1123-1.4697c-0.5645-0.3545-1.3193-0.6377-2.2642-0.8467
		l-0.6211-0.1377C115.4644,7.7627,115.4136,7.8086,115.3892,7.918z"/>
	<path d="M125.1641,18.6641c-0.3862-0.5098-0.5972-1.1309-0.6333-1.8613c-0.0356-0.7295,0.1182-1.5557,0.4609-2.4785
		c0.3486-0.9375,0.7793-1.6777,1.293-2.2207s1.0845-0.8848,1.7134-1.0273c0.6289-0.1416,1.2959-0.0811,2.0005,0.1807
		c0.7051,0.2617,1.2471,0.6514,1.627,1.168c0.3794,0.5176,0.5859,1.1445,0.6191,1.8818c0.0327,0.7383-0.125,1.5752-0.4736,2.5127
		c-0.3428,0.9229-0.7671,1.6504-1.2725,2.1836c-0.5059,0.5332-1.0723,0.8691-1.6997,1.0068s-1.2935,0.0762-1.998-0.1865
		C126.0957,19.5615,125.5503,19.1748,125.1641,18.6641z M129.457,19.2041c0.7085-0.4482,1.3003-1.3105,1.7744-2.585
		c0.4795-1.29,0.5952-2.3418,0.3472-3.1553s-0.8335-1.3916-1.7554-1.7344c-0.9302-0.3457-1.7573-0.291-2.4814,0.165
		c-0.7246,0.457-1.3252,1.3262-1.8018,2.6084c-0.4712,1.2666-0.5786,2.3066-0.3213,3.1191
		c0.2568,0.8125,0.8501,1.3916,1.7798,1.7373S128.748,19.6533,129.457,19.2041z"/>
	<path d="M139.8916,25.7666c-0.0347,0.0225-0.0693,0.0244-0.105,0.0049l-0.2959-0.1582c-0.0498-0.0264-0.0752-0.0811-0.0762-0.1631
		l0.3989-4.3594c0.0098-0.085-0.0454-0.1602-0.1655-0.2246l-2.2856-1.2227c-0.0493-0.0264-0.0884-0.0332-0.1172-0.0215
		c-0.0293,0.0117-0.0532,0.0352-0.0718,0.0703l-1.8848,3.5234c-0.0415,0.0781-0.0977,0.0977-0.168,0.0596l-0.2754-0.1465
		c-0.0425-0.0234-0.0659-0.0469-0.0703-0.0723c-0.0049-0.0254,0.0005-0.0518,0.0156-0.0801l4.0918-7.6504
		c0.0376-0.0703,0.0884-0.0889,0.1519-0.0547l2.73,1.46c0.7622,0.4082,1.2676,0.8867,1.5176,1.4375
		c0.2495,0.5518,0.2007,1.1514-0.1465,1.7998c-0.23,0.4307-0.5024,0.7412-0.8174,0.9307c-0.3149,0.1904-0.6362,0.2949-0.9644,0.3145
		s-0.6323-0.0049-0.9131-0.0732c-0.0464-0.0156-0.0737,0.001-0.082,0.0518l-0.4077,4.4766
		C139.9458,25.7119,139.9263,25.7441,139.8916,25.7666z M141.3374,20.7354c0.5166-0.0498,0.9336-0.3711,1.2505-0.9639
		c0.2905-0.543,0.3467-1.0303,0.1689-1.4609s-0.5879-0.8184-1.2295-1.1611l-2.2114-1.1826
		c-0.0776-0.042-0.1318-0.0342-0.1616,0.0225l-1.6416,3.0684c-0.0337,0.0635-0.0264,0.1084,0.0234,0.1348l1.894,1.0127
		C140.1846,20.6094,140.8208,20.7861,141.3374,20.7354z"/>
	<path d="M146.1406,21.9961c0.0005-0.0225,0.0083-0.0391,0.0239-0.0479l1.0596-0.6436c0.0508-0.0342,0.0801-0.0654,0.0889-0.0928
		c0.0083-0.0283-0.0044-0.0527-0.0376-0.0752l-0.1714-0.1104c-0.0269-0.0176-0.043-0.0371-0.0474-0.0596
		c-0.0049-0.0215-0.0005-0.043,0.0122-0.0635l0.4497-0.6953c0.0264-0.04,0.0596-0.0469,0.0996-0.0205l0.7358,0.4756
		c0.04,0.0264,0.0474,0.0596,0.021,0.0996l-0.4038,0.624c-0.0088,0.0137-0.0288,0.0293-0.0596,0.0479l-1.4272,0.749
		c-0.02,0.0156-0.0405,0.0215-0.0615,0.0166c-0.0215-0.0039-0.0488-0.0166-0.082-0.0381l-0.1714-0.1113
		C146.1494,22.0381,146.1396,22.0195,146.1406,21.9961z"/>
	<path d="M150.4956,28.6025c0.4307-0.0654,0.8149-0.1357,1.1528-0.2119c0.3379-0.0752,0.6392-0.166,0.9048-0.2715
		c0.2651-0.1055,0.4976-0.2305,0.6973-0.376c0.1997-0.1445,0.374-0.3154,0.5239-0.5137c0.2456-0.3252,0.3652-0.6562,0.3584-0.9922
		s-0.0947-0.6514-0.2642-0.9443s-0.3853-0.5391-0.6465-0.7363c-0.1919-0.1445-0.4204-0.2705-0.6865-0.376
		s-0.5518-0.1689-0.8574-0.1885c-0.3057-0.0205-0.6138,0.0225-0.9243,0.1279c-0.0273,0.0098-0.0576,0.0068-0.0913-0.0088
		c-0.0337-0.0146-0.0566-0.0469-0.0693-0.0967l-0.0493-0.2334c-0.0142-0.0605-0.0142-0.1006,0.0005-0.1201
		c0.0142-0.0186,0.0464-0.0352,0.0962-0.0479c0.5361-0.166,1.0684-0.1797,1.5962-0.042c0.5273,0.1377,0.9795,0.3486,1.356,0.6338
		c0.332,0.25,0.603,0.5557,0.813,0.915c0.21,0.3584,0.3086,0.752,0.2969,1.1787c-0.0117,0.4277-0.189,0.8672-0.5312,1.3213
		c-0.2222,0.293-0.4849,0.5283-0.7886,0.7051c-0.3037,0.1758-0.689,0.3213-1.1558,0.4346c-0.4673,0.1143-1.0527,0.2256-1.7568,0.335
		l-3.5923,0.5352c-0.0562,0.0078-0.0864,0.0273-0.0903,0.0596c-0.0044,0.0312,0.0161,0.0645,0.061,0.0986l3.6094,2.7266
		c0.0576,0.0439,0.0669,0.0908,0.0283,0.1416l-0.188,0.249c-0.019,0.0254-0.0386,0.041-0.0576,0.0469
		c-0.0195,0.0059-0.0449-0.0039-0.0767-0.0283l-4.0981-3.0957c-0.0449-0.0342-0.0693-0.0645-0.0728-0.0928
		c-0.0039-0.0273,0.0107-0.0645,0.0444-0.1084l0.145-0.1924c0.0386-0.0508,0.0728-0.0898,0.1035-0.1172
		c0.0303-0.0264,0.0688-0.0479,0.1152-0.0625c0.0464-0.0156,0.0977-0.0264,0.1538-0.0342L150.4956,28.6025z"/>
	<path d="M156.0063,37.5l-0.2427,0.2656c-0.0054,0.0059-0.0195,0.0127-0.042,0.0195c-0.022,0.0059-0.0454-0.001-0.0688-0.0225
		l-2.8525-2.6064c-0.0356-0.0322-0.0371-0.0664-0.0044-0.1016l0.2427-0.2656c0.0322-0.0361,0.0664-0.0371,0.1016-0.0049
		l1.249,1.1416c0.0356,0.0322,0.064,0.0361,0.0859,0.0127l5.1152-5.5986c0.043-0.0479,0.0415-0.082-0.0044-0.1025l-1.6938-0.6367
		c-0.0635-0.0254-0.0684-0.0674-0.0142-0.127l0.1943-0.2129c0.0269-0.0293,0.0459-0.0439,0.0571-0.0449
		c0.0112,0,0.0342,0.0049,0.0688,0.0146l1.7642,0.5059c0.0625,0.0146,0.1104,0.0303,0.1421,0.0488
		c0.0322,0.0186,0.0659,0.0439,0.1011,0.0762l0.2393,0.2188c0.0474,0.043,0.0469,0.0908-0.002,0.1445l-5.5444,6.0684
		c-0.0322,0.0352-0.0337,0.0664-0.0039,0.0938l1.0981,1.0039C156.0342,37.4277,156.0386,37.4648,156.0063,37.5z"/>
	<path d="M181.6851,59.0908c0.0293-0.0127,0.0518-0.0156,0.0674-0.0088c0.0161,0.0059,0.0303,0.0234,0.0425,0.0527l2.4272,5.6836
		c0.0127,0.0293,0.0156,0.0527,0.0093,0.0684s-0.0244,0.0293-0.0537,0.042l-0.2866,0.123
		c-0.0518,0.0215-0.0898,0.0029-0.1152-0.0557l-1.0034-2.3506c-0.0317-0.0732-0.0806-0.0957-0.1465-0.0684l-7.5376,3.2188
		c-0.0737,0.0322-0.1245,0.0146-0.1528-0.0518l-0.1274-0.2979c-0.0312-0.0732-0.0103-0.126,0.0635-0.1572l7.5376-3.2188
		c0.0659-0.0283,0.0835-0.0801,0.0522-0.1533l-1.103-2.582c-0.0254-0.0596-0.0122-0.0996,0.0396-0.1211L181.6851,59.0908z"/>
	<path d="M177.4448,72.0176l8.3232-2.4902c0.0693-0.0205,0.1128-0.001,0.1313,0.0605l0.0723,0.2412
		c0.0181,0.0615-0.0034,0.1016-0.0645,0.1201l-3.1504,0.9424c-0.0381,0.0117-0.0591,0.0254-0.062,0.043s0.0151,0.0371,0.0552,0.0596
		c0.2939,0.2285,0.5464,0.4375,0.7568,0.625s0.3867,0.3848,0.5283,0.5938c0.1416,0.208,0.2539,0.4502,0.3364,0.7256
		c0.1831,0.6133,0.165,1.124-0.0552,1.5322c-0.2207,0.4082-0.5796,0.6865-1.0776,0.8359l-4.4033,1.3174
		c-0.0767,0.0225-0.1255,0-0.146-0.0693l-0.0757-0.2529c-0.0093-0.0303-0.0068-0.0586,0.0063-0.083
		c0.0137-0.0254,0.0356-0.042,0.0664-0.0518l4.2305-1.2656c0.4521-0.1348,0.7715-0.3516,0.958-0.6494s0.2051-0.6963,0.0562-1.1943
		c-0.0801-0.2686-0.1948-0.5049-0.3442-0.7109s-0.3369-0.4062-0.562-0.6025c-0.2261-0.1953-0.5034-0.4111-0.8325-0.6465
		l-4.6099,1.3789c-0.0693,0.0215-0.1138-0.0029-0.1348-0.0723l-0.0757-0.2529C177.3516,72.083,177.376,72.0381,177.4448,72.0176z"/>
	<path d="M181.3784,80.877c-0.3428,0.2822-0.5972,0.624-0.7632,1.0254c-0.166,0.4004-0.2085,0.8213-0.127,1.2617
		c0.0869,0.4717,0.2563,0.8633,0.5093,1.1748c0.2524,0.3115,0.5757,0.541,0.9688,0.6885c0.0435,0.0156,0.0688,0.0332,0.0767,0.0527
		c0.0078,0.0186,0.0059,0.041-0.0059,0.0684l-0.127,0.3037c-0.0225,0.0527-0.061,0.0645-0.1157,0.0332
		c-0.3164-0.1289-0.5938-0.2969-0.8315-0.5059c-0.2378-0.208-0.4341-0.4561-0.5889-0.7451s-0.2661-0.6182-0.3345-0.9873
		c-0.1045-0.5674-0.0625-1.0889,0.126-1.5674s0.5024-0.8838,0.9414-1.2168s0.9727-0.5576,1.6025-0.6738
		c0.6919-0.127,1.3047-0.1123,1.8384,0.0459s0.9717,0.4287,1.3154,0.8135c0.3433,0.3838,0.5654,0.8516,0.667,1.4023
		c0.103,0.5586,0.0674,1.0605-0.1064,1.5078s-0.4746,0.8232-0.9019,1.1299c-0.4277,0.3066-0.9717,0.5215-1.6328,0.6426
		c-0.0469,0.0088-0.0991,0.0146-0.1553,0.0166c-0.0566,0.0029-0.0928-0.04-0.1089-0.126l-0.894-4.8506
		c-0.0044-0.0234-0.0254-0.0381-0.063-0.043c-0.0376-0.0059-0.0757-0.0049-0.1152,0.0029
		C182.1123,80.4121,181.7207,80.5938,181.3784,80.877z M183.9497,84.6006c0.0161,0.0859,0.0381,0.1396,0.0659,0.1582
		c0.0278,0.0195,0.0732,0.0234,0.1362,0.0117c0.4326-0.0801,0.8096-0.2432,1.1304-0.4893c0.3203-0.2461,0.5547-0.5537,0.7021-0.9219
		c0.1475-0.3691,0.1792-0.7822,0.0952-1.2383c-0.0957-0.5195-0.3018-0.9307-0.6177-1.2344
		c-0.3164-0.3037-0.6836-0.5068-1.1006-0.6084c-0.4175-0.1025-0.8232-0.1172-1.2163-0.0449L183.9497,84.6006z"/>
	<path d="M181.9634,96.4678l-0.3594,0.0166c-0.0083,0-0.0225-0.0049-0.043-0.0156c-0.0205-0.0117-0.0317-0.0332-0.0332-0.0654
		l-0.1802-3.8594c-0.002-0.0479,0.0205-0.0732,0.0688-0.0752l0.3594-0.0166c0.0479-0.0029,0.0732,0.0205,0.0752,0.0684
		l0.0791,1.6904c0.002,0.0479,0.019,0.0713,0.0513,0.0693l7.5757-0.3535c0.064-0.0029,0.0869-0.0283,0.0684-0.0762l-0.7495-1.6465
		c-0.0269-0.0625-0.0005-0.0957,0.0796-0.0996l0.2876-0.0137c0.04-0.002,0.064,0.001,0.0723,0.0088s0.0215,0.0273,0.0391,0.0586
		l0.8916,1.6035c0.0347,0.0547,0.0566,0.0996,0.0664,0.1357c0.0098,0.0352,0.0156,0.0771,0.0181,0.125l0.0151,0.3232
		c0.0029,0.0645-0.0317,0.0977-0.1035,0.1016l-8.2109,0.3828c-0.0479,0.0029-0.0713,0.0234-0.0693,0.0635l0.0693,1.4863
		C182.0342,96.4365,182.0112,96.4648,181.9634,96.4678z"/>
	<path d="M190.2383,104.2812c0.0103,0.0283,0.0146,0.0625,0.0127,0.1025l-0.0186,0.3721c-0.0039,0.0713-0.0415,0.1055-0.1133,0.1016
		l-5.6211-0.2822c-0.064-0.0029-0.0972,0.0234-0.1001,0.0791l-0.0615,1.2227c-0.0039,0.0791-0.0342,0.1182-0.0898,0.1152
		l-0.2993-0.0146c-0.0801-0.0039-0.1182-0.0469-0.1143-0.126l0.061-1.2109c0.0034-0.0635-0.0312-0.0977-0.103-0.1006l-2.3491-0.1182
		c-0.0718-0.0039-0.106-0.0459-0.1016-0.126l0.0166-0.335c0.0034-0.0645,0.041-0.0947,0.1128-0.0908l2.3848,0.1201
		c0.0483,0.002,0.0737-0.0283,0.0771-0.0928l0.2036-4.0508c0.0044-0.0879,0.0464-0.1299,0.1265-0.126l0.3716,0.0195
		c0.0396,0.002,0.0791,0.0117,0.1187,0.0293c0.0391,0.0186,0.0854,0.0488,0.1396,0.0918l5.3081,4.3516
		C190.2148,104.2295,190.2275,104.252,190.2383,104.2812z M184.438,103.8633c-0.0039,0.0723,0.0225,0.1094,0.0781,0.1123
		l4.6382,0.2334c0.0879,0.0039,0.1367-0.0078,0.146-0.0352s-0.0205-0.0713-0.0894-0.1309l-4.4424-3.6475
		c-0.1001-0.085-0.1533-0.0596-0.1602,0.0762L184.438,103.8633z"/>
	<path d="M188.2441,110.1123c0.0039-0.0322-0.0103-0.0508-0.0425-0.0547l-2.5259-0.3232c-0.2549-0.0322-0.4258-0.0166-0.5142,0.0469
		c-0.0879,0.0645-0.1411,0.165-0.1587,0.3047l-0.0703,0.5479c-0.002,0.0186-0.0073,0.0322-0.0156,0.04
		c-0.0078,0.0088-0.0215,0.0117-0.04,0.0088l-0.1177-0.0146c-0.0234-0.0029-0.0376-0.0186-0.0435-0.0479
		c-0.001-0.0283,0.001-0.0811,0.0063-0.1582c0.0049-0.0762,0.0112-0.1523,0.0181-0.2266c0.0073-0.0742,0.0132-0.1279,0.0171-0.1602
		c0.0356-0.2773,0.1235-0.46,0.2642-0.5479s0.3589-0.1133,0.6548-0.0752l2.561,0.3281c0.0322,0.0039,0.0503-0.0107,0.0547-0.043
		l0.0825-0.6455c0.0034-0.0273,0.019-0.0391,0.0469-0.0361l0.1597,0.0205c0.0278,0.0039,0.0396,0.0195,0.0361,0.0469l-0.0835,0.6523
		c-0.0034,0.0283,0.0107,0.0439,0.0435,0.0479l1.123,0.207c0.0464,0.0059,0.0669,0.0273,0.0625,0.0645l-0.0127,0.0977
		c-0.0054,0.041-0.0332,0.0586-0.084,0.0527l-1.1245-0.1445c-0.0322-0.0039-0.0508,0.0107-0.0547,0.043l-0.1235,0.9639
		c-0.0034,0.0283-0.019,0.04-0.0469,0.0371l-0.1597-0.0205c-0.0278-0.0039-0.0396-0.0195-0.0361-0.0469L188.2441,110.1123z"/>
	<path d="M184.4336,112.7607l4.9844,0.8984c0.0415,0.0078,0.0591,0.0293,0.0522,0.0664l-0.0259,0.1445
		c-0.0068,0.0371-0.0283,0.0518-0.0649,0.0449l-1.8867-0.3398c-0.0229-0.0039-0.0376-0.002-0.0439,0.0059
		c-0.0063,0.0088-0.002,0.0234,0.0132,0.0459c0.0928,0.1963,0.1689,0.3711,0.229,0.5244c0.0601,0.1523,0.0996,0.3018,0.1182,0.4473
		c0.019,0.1455,0.0137,0.3018-0.0161,0.4668c-0.0664,0.3672-0.2104,0.6279-0.4326,0.7822s-0.4824,0.2041-0.7808,0.1504
		l-2.6367-0.4756c-0.0464-0.0078-0.0654-0.0322-0.0581-0.0742l0.0273-0.1514c0.0034-0.0186,0.0117-0.0322,0.0254-0.041
		c0.0137-0.0098,0.0293-0.0127,0.0479-0.0098l2.5337,0.457c0.271,0.0488,0.4941,0.0205,0.6694-0.0859
		c0.1753-0.1055,0.29-0.3076,0.3438-0.6064c0.0293-0.1602,0.0317-0.3135,0.0083-0.46c-0.0229-0.1465-0.0679-0.2998-0.1333-0.4609
		c-0.0659-0.1621-0.1533-0.3467-0.2627-0.5557l-2.7607-0.498c-0.0415-0.0078-0.0581-0.0322-0.0508-0.0732l0.0273-0.1514
		C184.3677,112.7705,184.3921,112.7529,184.4336,112.7607z"/>
	<path d="M185.8838,123.8467c0.1758,0.3418,0.3032,0.666,0.3813,0.9727s0.1094,0.6084,0.0938,0.9062s-0.0732,0.6025-0.1733,0.915
		c-0.1733,0.541-0.416,0.9775-0.7285,1.3096c-0.3125,0.333-0.6616,0.5566-1.0469,0.6729c-0.3857,0.1162-0.7769,0.1104-1.1729-0.0166
		c-0.4419-0.1416-0.7871-0.4014-1.0356-0.7793c-0.249-0.3779-0.3823-0.8262-0.4009-1.3447
		c-0.0039-0.0938-0.0132-0.1426-0.0283-0.1475c-0.0156-0.0049-0.0479,0.0312-0.0977,0.1074
		c-0.1763,0.2881-0.4048,0.5361-0.6855,0.7441c-0.2812,0.208-0.5962,0.3467-0.9458,0.415c-0.3496,0.0693-0.7188,0.041-1.1074-0.083
		c-0.4268-0.1367-0.7861-0.3779-1.0786-0.7236s-0.4746-0.7803-0.5464-1.3037c-0.0718-0.5225,0.0005-1.123,0.2178-1.8008
		c0.1123-0.3506,0.2539-0.667,0.4238-0.9482s0.3779-0.5322,0.625-0.751c0.2466-0.2197,0.542-0.4209,0.8862-0.6045
		c0.0303-0.0156,0.0513-0.0215,0.0625-0.0176c0.0117,0.0039,0.0273,0.0254,0.0483,0.0654l0.1519,0.3135
		c0.0259,0.0508,0.0303,0.0811,0.0142,0.0928s-0.0347,0.0225-0.0547,0.0332c-0.3096,0.1523-0.5718,0.3291-0.7871,0.5293
		c-0.2148,0.1992-0.3965,0.4248-0.5439,0.6758c-0.1479,0.251-0.269,0.5254-0.3643,0.8223c-0.2539,0.792-0.2744,1.46-0.062,2.0029
		c0.2124,0.542,0.5933,0.9014,1.1416,1.0771c0.4419,0.1416,0.8491,0.1357,1.2217-0.0176c0.3726-0.1543,0.6948-0.3994,0.9668-0.7363
		c0.272-0.3379,0.4736-0.7119,0.6055-1.123l0.3296-1.0283c0.022-0.0684,0.0596-0.0947,0.1128-0.0771l0.2974,0.0947
		c0.0532,0.0176,0.0688,0.0605,0.0469,0.1289l-0.2671,0.834c-0.1465,0.457-0.2012,0.8955-0.1631,1.3154
		c0.0376,0.4189,0.1587,0.7812,0.3638,1.0859c0.2046,0.3057,0.4785,0.5127,0.8213,0.623c0.3047,0.0977,0.6069,0.0977,0.9067,0
		c0.2998-0.0967,0.5732-0.2803,0.8193-0.5498c0.2456-0.2695,0.4346-0.6104,0.5664-1.0215c0.1343-0.4199,0.1797-0.8359,0.1353-1.249
		c-0.0439-0.4131-0.1606-0.8096-0.3496-1.1895c-0.0205-0.04-0.0269-0.0732-0.0181-0.0996c0.0083-0.0273,0.0342-0.0547,0.0767-0.083
		l0.2041-0.0859C185.8066,123.7715,185.8525,123.7861,185.8838,123.8467z"/>
	<path d="M182.8848,135.2188c-0.0557,0.1201-0.1206,0.2549-0.1948,0.4053c-0.0747,0.1514-0.1411,0.29-0.2002,0.417
		s-0.0952,0.2051-0.1089,0.2334c-0.4795,1.0127-1.0078,1.7598-1.5845,2.2412s-1.2183,0.7285-1.9248,0.7393
		c-0.7065,0.0117-1.5024-0.1885-2.3877-0.5996c-0.9575-0.4453-1.6685-0.9658-2.1328-1.5605
		c-0.4644-0.5957-0.6899-1.2822-0.6763-2.0615s0.2515-1.665,0.7134-2.6592l0.5161-1.1094c0.0303-0.0654,0.0815-0.0811,0.1543-0.0479
		l7.8564,3.6523c0.0361,0.0166,0.0596,0.0381,0.0688,0.0654c0.0098,0.0264,0.0063,0.0576-0.0107,0.0938
		C182.9702,135.0352,182.9404,135.0996,182.8848,135.2188z M182.1929,135.1416l-6.9429-3.2266
		c-0.0649-0.0303-0.1162-0.0059-0.1533,0.0742l-0.2529,0.5439c-0.4351,0.9355-0.667,1.7432-0.6958,2.4219
		c-0.0293,0.6797,0.1611,1.2705,0.5713,1.7744c0.4097,0.5039,1.0498,0.958,1.9204,1.3623c0.9502,0.4424,1.75,0.6436,2.3984,0.6055
		s1.2065-0.2949,1.6743-0.7695c0.4678-0.4756,0.9062-1.1514,1.314-2.0293l0.2681-0.5771
		C182.3281,135.249,182.2944,135.1895,182.1929,135.1416z"/>
	<path d="M167.7358,145.2822c0.5923-0.2432,1.2461-0.29,1.9614-0.1387c0.7153,0.1504,1.4751,0.5098,2.2803,1.0752
		c0.8179,0.5752,1.4243,1.1807,1.8188,1.8154c0.395,0.6338,0.5811,1.2734,0.5586,1.918c-0.0229,0.6445-0.2505,1.2734-0.6831,1.8887
		s-0.9473,1.041-1.5435,1.2764c-0.5962,0.2363-1.2554,0.2764-1.9771,0.1211c-0.7222-0.1562-1.4922-0.5215-2.3101-1.0967
		c-0.8047-0.5654-1.4009-1.1611-1.7881-1.7852c-0.3872-0.625-0.5679-1.2578-0.542-1.8994c0.0259-0.6426,0.2554-1.2705,0.688-1.8857
		S167.144,145.5264,167.7358,145.2822z M166.123,149.2979c0.2539,0.7988,0.937,1.5908,2.0498,2.373
		c1.1255,0.791,2.1128,1.1709,2.9629,1.1377c0.8496-0.0332,1.5576-0.4531,2.124-1.2578c0.5703-0.8115,0.7271-1.625,0.4702-2.4414
		c-0.2573-0.8164-0.9453-1.6182-2.0645-2.4053c-1.1055-0.7783-2.084-1.1455-2.9351-1.1035s-1.562,0.4688-2.1328,1.2803
		S165.8687,148.4971,166.123,149.2979z"/>
	<path d="M161.2681,153.1494c0.0322-0.0352,0.0645-0.0527,0.0952-0.0508c0.0312,0.001,0.0679,0.0205,0.1094,0.0586l6.3823,5.8057
		c0.0591,0.0537,0.0645,0.1074,0.0161,0.1602l-0.1855,0.2041c-0.043,0.0479-0.0972,0.042-0.1626-0.0176l-2.2456-2.043
		c-0.0596-0.0537-0.0986-0.0732-0.1177-0.0576c-0.019,0.0146-0.0298,0.0586-0.0317,0.1328
		c0.0024,0.0566-0.0039,0.1885-0.0195,0.3955c-0.0156,0.208-0.0771,0.46-0.1851,0.7568s-0.3042,0.6016-0.5894,0.915
		c-0.4146,0.4561-0.8594,0.7246-1.334,0.8066s-0.9561,0.0225-1.4438-0.1777c-0.4883-0.2012-0.9541-0.5029-1.3979-0.9062
		c-0.7578-0.6895-1.1953-1.4121-1.313-2.168c-0.1182-0.7559,0.1138-1.4541,0.6953-2.0928c0.2744-0.3018,0.5503-0.5137,0.8276-0.6338
		c0.2773-0.1211,0.5249-0.1875,0.7422-0.2012c0.2173-0.0127,0.3662-0.0156,0.4458-0.0078c0.0513,0.0029,0.083-0.0059,0.0962-0.0264
		s-0.001-0.0498-0.042-0.0869l-0.4365-0.4297c-0.0771-0.0703-0.0752-0.1494,0.0054-0.2383L161.2681,153.1494z M162.6055,154.8359
		c-0.2368-0.2148-0.5234-0.3408-0.8589-0.375c-0.3359-0.0352-0.6694,0.0068-1.0005,0.1279
		c-0.3315,0.1201-0.6099,0.3047-0.8364,0.5537c-0.2798,0.3076-0.46,0.6572-0.5405,1.0488s-0.0327,0.8057,0.1436,1.2422
		c0.1768,0.4355,0.5073,0.875,0.9927,1.3164c0.6333,0.5762,1.2632,0.8994,1.8896,0.9727c0.626,0.0713,1.1787-0.1553,1.6582-0.6816
		c0.2959-0.3262,0.4937-0.6953,0.5928-1.1074c0.0996-0.4121,0.1235-0.8047,0.0718-1.1758L162.6055,154.8359z"/>
	<path d="M154.0884,158.1787c-0.0283-0.292,0.1548-0.625,0.5503-0.998c0.2559-0.2422,0.4185-0.3877,0.4878-0.4365
		s0.1206-0.0557,0.1533-0.0215l0.1733,0.1836c0.0161,0.0176,0.0244,0.0342,0.0239,0.0518
		c-0.0005,0.0166-0.0098,0.0332-0.0269,0.0498l-0.498,0.4873c-0.2266,0.2256-0.3374,0.4395-0.332,0.6436
		s0.1401,0.4453,0.4038,0.7246l4.6646,4.9365c0.0552,0.0586,0.0537,0.1152-0.0044,0.1699l-0.1919,0.1816
		c-0.0469,0.0439-0.0977,0.0361-0.1523-0.0215l-4.7061-4.9805C154.2988,158.7949,154.1172,158.4717,154.0884,158.1787z
		 M160.4502,165.3926c-0.0884-0.0938-0.0972-0.1729-0.0273-0.2393l0.2354-0.2217c0.064-0.0605,0.1343-0.0508,0.2114,0.0312
		l0.585,0.6191c0.0718,0.0752,0.0723,0.1465,0.0024,0.2119l-0.2266,0.2148c-0.0698,0.0654-0.1406,0.0605-0.2119-0.0146
		L160.4502,165.3926z"/>
	<path d="M153.0928,163.5625c-0.4126-0.165-0.8345-0.2236-1.2656-0.1768s-0.8208,0.2119-1.168,0.4941
		c-0.3726,0.3037-0.6343,0.6406-0.7861,1.0117s-0.1978,0.7646-0.1382,1.1797c0.0063,0.0459,0.0034,0.0771-0.0098,0.0928
		c-0.0127,0.0156-0.0337,0.0254-0.0625,0.0283l-0.3276,0.0342c-0.0571,0.0059-0.0854-0.0234-0.085-0.0859
		c-0.0391-0.3389-0.0244-0.6631,0.0444-0.9717c0.0684-0.3086,0.1919-0.6006,0.3711-0.875c0.1787-0.2744,0.4141-0.5303,0.7056-0.7676
		c0.4468-0.3633,0.9248-0.5771,1.4351-0.6416c0.5098-0.0645,1.0161,0.0156,1.519,0.2412c0.5029,0.2246,0.9561,0.585,1.3604,1.082
		c0.4443,0.5459,0.7256,1.0908,0.8433,1.6348c0.1177,0.543,0.0903,1.0576-0.0815,1.5439c-0.1719,0.4854-0.4751,0.9053-0.9097,1.2588
		c-0.4404,0.3584-0.8984,0.5684-1.374,0.6309c-0.4756,0.0615-0.9502-0.0215-1.4243-0.249c-0.4746-0.2275-0.9238-0.6016-1.3477-1.123
		c-0.0308-0.0371-0.0601-0.0801-0.0894-0.1289c-0.0293-0.0479-0.0098-0.1006,0.0586-0.1553l3.8252-3.1143
		c0.0186-0.0146,0.021-0.04,0.0073-0.0752c-0.0132-0.0361-0.0327-0.0693-0.0576-0.1006
		C153.8525,163.9834,153.5049,163.7266,153.0928,163.5625z M151.0615,167.6064c-0.0679,0.0557-0.104,0.0996-0.1074,0.1338
		s0.0151,0.0752,0.0552,0.125c0.2778,0.3408,0.6021,0.5938,0.9717,0.7568c0.3701,0.1631,0.7524,0.2207,1.1465,0.1729
		c0.3945-0.0479,0.772-0.2178,1.1318-0.5107c0.4092-0.334,0.6714-0.7119,0.7856-1.1348c0.1147-0.4238,0.1162-0.8428,0.0054-1.2578
		s-0.293-0.7783-0.5454-1.0879L151.0615,167.6064z"/>
	<path d="M145.8735,174.6953c-0.2944,0.0684-0.5898,0.085-0.8857,0.0488c-0.2959-0.0352-0.5928-0.1133-0.8916-0.2334
		c-0.064-0.0254-0.0859-0.0586-0.0659-0.1006l0.1362-0.3184c0.02-0.042,0.0654-0.0527,0.1367-0.0322
		c0.3296,0.1094,0.6226,0.1729,0.8784,0.1924c0.2563,0.0186,0.4878,0.0029,0.6943-0.0459c0.207-0.0488,0.4043-0.1357,0.5913-0.2578
		c0.4087-0.2676,0.7021-0.6006,0.8804-0.999c0.1787-0.3994,0.2349-0.833,0.1675-1.3008c-0.0669-0.4678-0.2559-0.9385-0.5669-1.4141
		s-0.6675-0.8369-1.0693-1.0859c-0.4014-0.248-0.8193-0.3721-1.2529-0.3701c-0.4341,0.002-0.855,0.1367-1.2632,0.4043
		c-0.3413,0.2227-0.5957,0.5059-0.7627,0.8506c-0.1675,0.3428-0.2495,0.7578-0.2471,1.2441
		c0.002,0.0459-0.0029,0.0752-0.0142,0.0879c-0.0112,0.0117-0.0312,0.0176-0.0601,0.0176l-0.3296,0.001
		c-0.0464,0.002-0.0752-0.0273-0.0854-0.0879c-0.0068-0.2725,0.0171-0.5322,0.0713-0.7783
		c0.0542-0.2451,0.1367-0.4736,0.2471-0.6846c0.1108-0.2109,0.2466-0.4053,0.4077-0.582c0.1616-0.1777,0.3491-0.3369,0.5635-0.4766
		c0.4751-0.3115,0.9707-0.4707,1.4868-0.4785c0.5156-0.0078,1.0088,0.1289,1.479,0.4092s0.8828,0.6914,1.2378,1.2334
		s0.5669,1.0889,0.6367,1.6416c0.0693,0.5518,0,1.0654-0.2095,1.542s-0.5483,0.8682-1.0171,1.1748
		C146.4658,174.4941,146.168,174.627,145.8735,174.6953z"/>
	<path d="M140.4653,177.4189c0.0493-0.0264,0.0605-0.0645,0.0337-0.1133l-2.0864-3.8379c-0.2104-0.3867-0.4038-0.6094-0.5815-0.667
		c-0.1772-0.0586-0.3716-0.0303-0.582,0.084l-0.833,0.4531c-0.0283,0.0156-0.0522,0.0215-0.0718,0.0186
		c-0.02-0.0029-0.0376-0.0186-0.0527-0.0469l-0.0977-0.1787c-0.019-0.0352-0.0112-0.0713,0.0234-0.1084
		c0.0381-0.0303,0.1133-0.0801,0.2256-0.1504c0.1123-0.0693,0.2236-0.1367,0.334-0.2021c0.1108-0.0645,0.1904-0.1104,0.2397-0.1367
		c0.4219-0.2295,0.7642-0.29,1.0273-0.1826s0.5171,0.3857,0.7617,0.835l2.1152,3.8906c0.0264,0.0488,0.0645,0.0605,0.1138,0.0332
		l0.9805-0.5322c0.042-0.0234,0.0747-0.0137,0.0977,0.0283l0.1318,0.2422c0.0229,0.043,0.0132,0.0752-0.0288,0.0977l-0.9912,0.5391
		c-0.042,0.0234-0.0498,0.0596-0.0229,0.1084l0.8394,1.7705c0.0381,0.0693,0.0293,0.1201-0.0269,0.1504l-0.1479,0.0811
		c-0.063,0.0342-0.1157,0.0127-0.1577-0.0645l-0.9287-1.708c-0.0269-0.0498-0.0645-0.0605-0.1138-0.0342l-1.4653,0.7969
		c-0.0425,0.0234-0.0747,0.0137-0.0977-0.0283l-0.1318-0.2432c-0.0229-0.042-0.0137-0.0742,0.0288-0.0977L140.4653,177.4189z"/>
	<path d="M124.1919,178.1631c0.0063-0.041,0.0278-0.0684,0.0654-0.082l0.3145-0.1182c0.0527-0.0195,0.1099-0.0029,0.1729,0.0508
		l3.0122,3.1758c0.0581,0.0635,0.1509,0.0713,0.2778,0.0234l2.4268-0.9102c0.0527-0.0195,0.084-0.0449,0.0942-0.0742
		s0.0083-0.0625-0.0059-0.1006l-1.4038-3.7412c-0.0312-0.082-0.0088-0.1377,0.0659-0.165l0.292-0.1104
		c0.0449-0.0166,0.0786-0.0186,0.1006-0.0049c0.022,0.0127,0.0386,0.0342,0.0498,0.0645l3.0483,8.1221
		c0.0283,0.0752,0.0088,0.125-0.0586,0.1504l-2.8989,1.0879c-0.8086,0.3037-1.5024,0.3682-2.0811,0.1924
		c-0.5791-0.1768-0.9976-0.6084-1.2563-1.2979c-0.1714-0.457-0.2246-0.8662-0.1597-1.2285
		c0.0649-0.3613,0.1982-0.6719,0.3999-0.9316c0.2021-0.2598,0.4214-0.4717,0.6582-0.6377c0.042-0.0244,0.0474-0.0566,0.0151-0.0957
		l-3.0947-3.2607C124.1973,178.2402,124.186,178.2041,124.1919,178.1631z M127.0181,182.5693
		c-0.3032,0.4209-0.3364,0.9463-0.1006,1.5752c0.2168,0.5771,0.5454,0.9404,0.9863,1.0908
		c0.4409,0.1514,1.0024,0.0986,1.6841-0.1572l2.3481-0.8818c0.0825-0.0303,0.1123-0.0762,0.0898-0.1357l-1.2231-3.2578
		c-0.0249-0.0674-0.064-0.0918-0.1162-0.0723l-2.0112,0.7549C127.874,181.7861,127.3218,182.1475,127.0181,182.5693z"/>
	<path d="M120.5869,180.8691c-0.3052-0.3223-0.6626-0.5537-1.0737-0.6934c-0.4106-0.1387-0.833-0.1533-1.2676-0.0439
		c-0.4653,0.1182-0.8447,0.3135-1.1387,0.5859c-0.2939,0.2734-0.5015,0.6104-0.6226,1.0127
		c-0.0132,0.0439-0.0293,0.0713-0.0479,0.0801c-0.0181,0.0088-0.041,0.0078-0.0684-0.001l-0.3115-0.1074
		c-0.0547-0.0186-0.0684-0.0566-0.0415-0.1133c0.1079-0.3242,0.2578-0.6123,0.4497-0.8623c0.1924-0.252,0.4272-0.4639,0.7056-0.6377
		c0.2778-0.1729,0.5986-0.3066,0.9634-0.3984c0.5581-0.1416,1.082-0.1348,1.5718,0.0225c0.4893,0.1562,0.915,0.4424,1.2759,0.8584
		c0.3613,0.416,0.6206,0.9346,0.7778,1.5547c0.1733,0.6826,0.1987,1.2949,0.0762,1.8379c-0.1226,0.542-0.3638,0.998-0.7246,1.3652
		c-0.3604,0.3682-0.812,0.6211-1.355,0.7588c-0.5508,0.1396-1.0547,0.1377-1.5122-0.0068c-0.4575-0.1436-0.853-0.4189-1.187-0.8252
		s-0.584-0.9355-0.749-1.5869c-0.0117-0.0459-0.0205-0.0977-0.0269-0.1543c-0.0059-0.0557,0.0337-0.0947,0.1191-0.1162
		l4.7808-1.2119c0.0229-0.0068,0.0361-0.0283,0.0391-0.0664c0.0024-0.0371-0.001-0.0762-0.0107-0.1143
		C121.0986,181.5713,120.8916,181.1924,120.5869,180.8691z M117.041,183.6816c-0.0854,0.0215-0.1367,0.0469-0.1538,0.0762
		c-0.0176,0.0283-0.0186,0.0742-0.0024,0.1367c0.1079,0.4258,0.2954,0.791,0.562,1.0947c0.2671,0.3037,0.5894,0.5176,0.9673,0.6406
		c0.3774,0.1221,0.7915,0.127,1.2412,0.0127c0.5117-0.1299,0.9087-0.3623,1.1909-0.6982c0.2822-0.335,0.4604-0.7148,0.5347-1.1377
		c0.0742-0.4238,0.062-0.8291-0.0361-1.2168L117.041,183.6816z"/>
	<path d="M112.2104,187.1035c0.0552-0.0088,0.0781-0.041,0.0693-0.0967l-0.7056-4.3105c-0.0713-0.4346-0.1807-0.708-0.3291-0.8213
		c-0.1484-0.1143-0.3408-0.1514-0.5776-0.1123l-0.9355,0.1533c-0.0317,0.0049-0.0562,0.0029-0.0742-0.0068
		c-0.0176-0.0088-0.0293-0.0293-0.0342-0.0605l-0.0332-0.2012c-0.0063-0.04,0.0127-0.0713,0.0576-0.0947
		c0.0459-0.0156,0.1338-0.0381,0.2627-0.0674s0.2563-0.0566,0.3818-0.0811c0.126-0.0244,0.2163-0.041,0.2715-0.0508
		c0.4736-0.0771,0.8169-0.0225,1.0303,0.166s0.3613,0.5352,0.4438,1.04l0.7153,4.3701c0.0088,0.0547,0.041,0.0781,0.0962,0.0693
		l1.1016-0.1807c0.0474-0.0078,0.0747,0.0127,0.0825,0.0596l0.0449,0.2725c0.0073,0.0469-0.0122,0.0752-0.0596,0.083l-1.1133,0.1816
		c-0.0474,0.0078-0.0664,0.0391-0.0576,0.0947l0.2095,1.9482c0.0132,0.0781-0.0122,0.123-0.0752,0.1338l-0.166,0.0264
		c-0.0708,0.0117-0.1138-0.0254-0.1279-0.1123l-0.314-1.9189c-0.0088-0.0547-0.041-0.0781-0.0962-0.0693l-1.6465,0.2695
		c-0.0474,0.0078-0.0747-0.0117-0.0825-0.0596l-0.0444-0.2715c-0.0078-0.0479,0.0117-0.0752,0.0591-0.083L112.2104,187.1035z"/>
	<path d="M106.6885,181.8965c0.022,0.0176,0.0347,0.043,0.0376,0.0742l0.5845,6.1162c0.0068,0.0723-0.0215,0.1113-0.0854,0.1172
		l-0.251,0.0234c-0.0635,0.0068-0.0981-0.0225-0.1045-0.0859l-0.0776-0.8125c-0.0039-0.04-0.0137-0.0635-0.0308-0.0693
		c-0.0166-0.0068-0.0396,0.0078-0.0684,0.043c-0.2139,0.2852-0.4165,0.5156-0.6089,0.6904
		c-0.1919,0.1758-0.3848,0.3066-0.5771,0.3936c-0.1924,0.0859-0.3965,0.1396-0.6113,0.1602c-0.2788,0.0273-0.4219,0-0.4297-0.0791
		l-0.0298-0.3105c-0.0039-0.04,0.0142-0.0615,0.0542-0.0654c0.0317-0.0029,0.0737-0.0049,0.126-0.0059s0.1299-0.0068,0.2334-0.0166
		c0.1909-0.0186,0.396-0.084,0.6143-0.1973c0.2178-0.1133,0.4194-0.2568,0.6035-0.4316c0.1841-0.1738,0.333-0.3633,0.4458-0.5664
		c0.1133-0.2041,0.1606-0.4053,0.1416-0.6045l-0.4067-4.2529c-0.0068-0.0713,0.0259-0.1104,0.0972-0.1172l0.2632-0.0254
		C106.6401,181.8711,106.667,181.8779,106.6885,181.8965z"/>
	<path d="M100.9385,182.4258c-0.0024-0.0566,0.0039-0.0947,0.019-0.1152s0.0547-0.0322,0.1187-0.0352l0.2036-0.0078
		c0.0562-0.0029,0.0928,0.0039,0.1094,0.0186c0.0166,0.0156,0.0259,0.0479,0.0278,0.0957l0.2563,6.1143
		c0.0034,0.0801-0.0308,0.1211-0.1025,0.124l-0.2637,0.0117c-0.0723,0.0029-0.1099-0.0361-0.1133-0.1152L100.9385,182.4258z
		 M101.2046,190.1973c-0.0054-0.1279,0.04-0.1934,0.1357-0.1982l0.3237-0.0137c0.0562-0.002,0.0928,0.0127,0.1099,0.0439
		c0.0176,0.0312,0.0269,0.0713,0.0288,0.1191l0.0361,0.8506c0.0044,0.1045-0.0415,0.1582-0.1377,0.1621l-0.3115,0.0137
		c-0.0957,0.0039-0.146-0.0469-0.1504-0.1504L101.2046,190.1973z"/>
	<path d="M96.8633,183.9912c-0.2041-0.3945-0.4844-0.7158-0.8408-0.9629s-0.7588-0.377-1.2065-0.3916
		c-0.48-0.0146-0.8984,0.0684-1.2563,0.25c-0.3574,0.1807-0.6499,0.4482-0.877,0.8008c-0.0254,0.0391-0.0479,0.0605-0.0684,0.0645
		c-0.0195,0.0029-0.0415-0.0039-0.0654-0.0205l-0.27-0.1885c-0.0469-0.0332-0.0498-0.0732-0.0083-0.1201
		c0.1929-0.2822,0.416-0.5176,0.6699-0.7051c0.2539-0.1885,0.5386-0.3281,0.8535-0.418c0.3149-0.0908,0.6602-0.1299,1.0361-0.1182
		c0.5757,0.0176,1.0771,0.1689,1.5044,0.4541c0.4277,0.2852,0.7578,0.6777,0.9902,1.1777c0.2329,0.499,0.3394,1.0684,0.3193,1.708
		c-0.0215,0.7041-0.166,1.2998-0.4331,1.7881c-0.2671,0.4873-0.625,0.8584-1.0728,1.1133c-0.4482,0.2539-0.9521,0.373-1.5117,0.3555
		c-0.5679-0.0176-1.0518-0.1582-1.4517-0.4229c-0.4004-0.2646-0.7046-0.6387-0.9141-1.1211
		c-0.209-0.4824-0.3032-1.0596-0.2827-1.7314c0.0015-0.0479,0.0073-0.0996,0.0171-0.1553s0.0586-0.082,0.1465-0.0801l4.9297,0.1523
		c0.0239,0.001,0.0425-0.0166,0.0557-0.0518c0.0127-0.0361,0.02-0.0742,0.0215-0.1133
		C97.1621,184.8066,97.0669,184.3857,96.8633,183.9912z M92.6797,185.7168c-0.0879-0.0029-0.144,0.0078-0.1689,0.0303
		c-0.0244,0.0234-0.0381,0.0674-0.04,0.1309c-0.0137,0.4404,0.0664,0.8428,0.2388,1.208c0.1729,0.3662,0.4238,0.6602,0.7534,0.8818
		c0.3291,0.2227,0.7256,0.3408,1.1895,0.3555c0.5278,0.0156,0.9736-0.0986,1.3374-0.3438c0.3638-0.2441,0.6396-0.5605,0.8276-0.9463
		c0.188-0.3867,0.2881-0.7793,0.3003-1.1797L92.6797,185.7168z"/>
	<path d="M82.8838,187.5273c-0.0132-0.0225-0.0098-0.0479,0.0103-0.0771l3.2534-5.7432c0.043-0.083,0.1201-0.1172,0.2314-0.1025
		l0.1665,0.0225c0.127,0.0166,0.2012,0.0664,0.2222,0.1504l1.6479,6.3906c0.0024,0.041-0.0054,0.0703-0.0239,0.0879
		s-0.0474,0.0244-0.0874,0.0186l-0.2617-0.0342c-0.0396-0.0059-0.0703-0.0156-0.0928-0.0303
		c-0.022-0.0156-0.0342-0.043-0.0371-0.084l-1.4624-5.6895c-0.0356-0.1572-0.0996-0.1621-0.1919-0.0127l-2.8916,5.1123
		c-0.02,0.0303-0.041,0.0498-0.0625,0.0586c-0.021,0.0098-0.0479,0.0117-0.0796,0.0078l-0.2617-0.0342
		C82.9233,187.5625,82.897,187.5488,82.8838,187.5273z"/>
	<path d="M77.7817,180.127c0.3999-0.0742,0.8179-0.0615,1.2539,0.041c0.6152,0.1436,1.0649,0.4092,1.3481,0.7959
		c0.2837,0.3867,0.3643,0.8408,0.2422,1.3623c-0.0928,0.3975-0.2788,0.7109-0.5586,0.9414s-0.6533,0.3789-1.1211,0.4473
		c-0.4678,0.0674-1.0273,0.0527-1.6787-0.042l-1.2515-0.1807c-0.0645-0.0068-0.1172-0.001-0.1587,0.0176
		c-0.041,0.0195-0.0684,0.0566-0.0811,0.1113l-0.0845,0.3613c-0.1167,0.499-0.0513,0.9316,0.1958,1.2969
		c0.2471,0.3662,0.6357,0.6113,1.1655,0.7344c0.4053,0.0947,0.7886,0.0879,1.1509-0.0205s0.7168-0.3066,1.0635-0.5957
		c0.0308-0.0254,0.0547-0.04,0.0718-0.0449c0.0176-0.0039,0.0361,0.0049,0.0562,0.0254l0.2393,0.2412
		c0.0122,0.0195,0.0181,0.0371,0.0181,0.0537c0.0005,0.0166-0.0146,0.0371-0.0454,0.0635c-0.335,0.3076-0.7271,0.5361-1.1768,0.6855
		s-0.9512,0.1602-1.5044,0.0303c-0.4443-0.1035-0.811-0.2734-1.1011-0.5098s-0.4888-0.5264-0.5972-0.8721
		c-0.1079-0.3457-0.1128-0.7295-0.0146-1.1504l0.9751-4.1709c0.0107-0.0469,0.0278-0.0762,0.0508-0.0869
		c0.0234-0.0107,0.0542-0.0117,0.0933-0.0029l0.2104,0.0488c0.0308,0.0078,0.0547,0.0215,0.0703,0.041
		c0.0156,0.0205,0.019,0.0498,0.0103,0.0889l-0.1436,0.7188c-0.0059,0.0967,0.0312,0.1133,0.1113,0.0508
		C76.9858,180.3623,77.3823,180.2021,77.7817,180.127z M76.082,183.0508l1.0591,0.1621c0.4668,0.0762,0.876,0.1094,1.2271,0.1016
		c0.3511-0.0088,0.647-0.0547,0.8887-0.1377c0.2412-0.083,0.4336-0.2021,0.5762-0.3584c0.1436-0.1553,0.2412-0.3457,0.2939-0.5713
		c0.0947-0.4053,0.0264-0.7539-0.2051-1.0469c-0.2314-0.292-0.585-0.4941-1.0601-0.6045c-0.2881-0.0674-0.583-0.0811-0.8843-0.041
		c-0.3008,0.041-0.5806,0.1211-0.8389,0.2422c-0.2598,0.1279-0.4688,0.2744-0.6265,0.4385c-0.1572,0.165-0.2563,0.332-0.2964,0.5039
		l-0.2593,1.1104C75.9272,182.9736,75.9692,183.041,76.082,183.0508z"/>
	<path d="M72.3589,178.6396c0.0166-0.0537,0.0356-0.0879,0.0566-0.1016c0.0215-0.0146,0.0625-0.0127,0.1235,0.0068l0.1948,0.0605
		c0.0845,0.0264,0.1143,0.0771,0.0903,0.1533l-2.5728,8.2734c-0.0239,0.0762-0.0698,0.1035-0.1387,0.082l-0.2524-0.0781
		c-0.0684-0.0215-0.0908-0.0703-0.0674-0.1465L72.3589,178.6396z"/>
	<path d="M55.5391,178.415c-0.0063-0.0254,0.0015-0.0498,0.022-0.0762l4.1909-4.7959c0.0278-0.04,0.062-0.0615,0.103-0.0645
		c0.0415-0.0029,0.0874,0.0078,0.1377,0.0312l0.2935,0.1377c0.1089,0.0508,0.1572,0.1172,0.145,0.2002l-0.6953,5.4512
		c-0.0054,0.0684,0.001,0.1064,0.019,0.1152c0.0181,0.0078,0.0479-0.0137,0.0898-0.0645l3.625-4.0674
		c0.0273-0.04,0.0601-0.0625,0.0972-0.0664c0.0376-0.0049,0.082,0.0049,0.1323,0.0283l0.3262,0.1523
		c0.1089,0.0508,0.1572,0.1182,0.145,0.2002l-0.8979,6.3369c-0.0098,0.04-0.0259,0.0654-0.0488,0.0762
		c-0.0229,0.0117-0.0527,0.0088-0.0889-0.0078l-0.25-0.1172c-0.0361-0.0166-0.063-0.0361-0.0796-0.0566
		c-0.0166-0.0215-0.02-0.0518-0.0103-0.0918l0.8027-5.6523c0.0122-0.082,0.0029-0.1289-0.0278-0.1387
		c-0.0303-0.0098-0.0737,0.0166-0.1294,0.0791l-3.8188,4.2539c-0.0278,0.0225-0.0508,0.0342-0.0688,0.0342
		c-0.0176,0.001-0.041-0.0059-0.0703-0.0195l-0.25-0.1172c-0.0361-0.0166-0.0625-0.0352-0.0791-0.0566s-0.02-0.0518-0.0103-0.0908
		l0.7266-5.6885c0.0122-0.082,0.0049-0.1279-0.0225-0.1357c-0.0269-0.0088-0.0684,0.0186-0.124,0.0811l-3.7593,4.2695
		c-0.0278,0.0215-0.0571,0.0322-0.0879,0.0312c-0.0303-0.001-0.0601-0.0078-0.0889-0.0215l-0.1851-0.0869
		C55.5659,178.4609,55.5449,178.4395,55.5391,178.415z"/>
	<path d="M53.8628,170.4326c0.2241,0.4688,0.3057,0.9746,0.2451,1.5186c-0.061,0.5439-0.2622,1.0859-0.605,1.627
		c-0.3511,0.5537-0.7637,0.9775-1.2373,1.2686c-0.4736,0.292-0.9722,0.4404-1.4961,0.4443
		c-0.5234,0.0049-1.0322-0.1494-1.5254-0.4619s-0.8477-0.7031-1.0625-1.1709s-0.2915-0.9775-0.2305-1.5312
		c0.0615-0.5527,0.2656-1.1025,0.6128-1.6504c0.3467-0.5469,0.7549-0.9629,1.2241-1.248c0.4697-0.2852,0.9634-0.4297,1.4814-0.4326
		c0.5186-0.0029,1.0244,0.1523,1.5176,0.4648S53.6392,169.9639,53.8628,170.4326z M51.2534,169.248
		c-0.4268,0.0088-0.835,0.1406-1.2241,0.3955c-0.3892,0.2559-0.7358,0.623-1.0396,1.1035
		c-0.3042,0.4795-0.4878,0.9521-0.5513,1.4189s-0.0078,0.8975,0.168,1.293s0.4697,0.7236,0.8818,0.9844
		c0.4121,0.2617,0.8359,0.3887,1.272,0.3799c0.436-0.0078,0.853-0.1387,1.251-0.3936c0.3979-0.2539,0.749-0.6211,1.0532-1.1006
		c0.2998-0.4736,0.4795-0.9443,0.5396-1.4131c0.0605-0.4688,0-0.8994-0.1812-1.2939s-0.4814-0.7236-0.9004-0.9893
		S51.6807,169.2393,51.2534,169.248z"/>
	<path d="M47.3774,165.7227c0.0034,0.0273-0.0044,0.0547-0.0239,0.0801l-3.7363,4.877c-0.0439,0.0576-0.0908,0.0664-0.1421,0.0273
		l-0.1997-0.1533c-0.0508-0.0391-0.0566-0.084-0.0181-0.1348l0.4966-0.6475c0.0244-0.0322,0.0327-0.0557,0.0244-0.0713
		c-0.0078-0.0166-0.0342-0.0215-0.0791-0.0156c-0.3511,0.0635-0.6562,0.0947-0.9165,0.0918
		c-0.2598-0.0029-0.4897-0.0381-0.6899-0.1055c-0.2002-0.0684-0.3862-0.167-0.5576-0.2988
		c-0.2222-0.1699-0.3091-0.2871-0.2603-0.3506l0.1895-0.248c0.0244-0.0312,0.0527-0.0352,0.0845-0.0107
		c0.0254,0.0195,0.0576,0.0469,0.0962,0.0811c0.0391,0.0352,0.0996,0.084,0.1821,0.1475c0.1523,0.1162,0.3472,0.208,0.584,0.2734
		s0.4824,0.0977,0.7358,0.0947c0.2539-0.002,0.4912-0.0391,0.7129-0.1113s0.3931-0.1875,0.5146-0.3457l2.5981-3.3916
		c0.0435-0.0576,0.0942-0.0645,0.1514-0.0205l0.2095,0.1611C47.3589,165.6709,47.3735,165.6943,47.3774,165.7227z"/>
	<path d="M39.083,158.7129c0.0225-0.0117,0.0542,0.001,0.0952,0.0381l0.2759,0.25c0.0234,0.0215,0.0405,0.0449,0.0503,0.0693
		c0.0093,0.0254,0.0098,0.0547,0,0.0898l-0.7358,4.0625c-0.0049,0.0176-0.0059,0.0332-0.002,0.0469
		c0.0034,0.0137,0.0278,0.0195,0.0728,0.0176l2.186-0.124c0.0449-0.002,0.083-0.0107,0.1133-0.0264s0.0591-0.0381,0.0859-0.0684
		l1.1284-1.2441c0.0376-0.042,0.0693-0.0645,0.0942-0.0684c0.0254-0.0039,0.062,0.0156,0.1094,0.0586l0.1509,0.1367
		c0.0415,0.0381,0.063,0.0674,0.064,0.0908c0.001,0.0225-0.0146,0.0508-0.0469,0.0869l-5.8198,6.418
		c-0.0537,0.0596-0.1074,0.0645-0.1606,0.0166l-0.1958-0.1777c-0.0532-0.0479-0.0527-0.1025,0.001-0.1611l4.0142-4.4268
		c0.0483-0.0537,0.0693-0.0889,0.063-0.1055s-0.0439-0.0234-0.1113-0.0195l-4.8706,0.2969
		c-0.1069,0.0107-0.1841-0.0049-0.2314-0.0479l-0.2847-0.2578c-0.0474-0.043-0.0615-0.0781-0.0435-0.1045
		c0.0186-0.0264,0.0679-0.041,0.1465-0.0449l2.897-0.1758c0.0229-0.001,0.042-0.0078,0.0586-0.0195
		c0.0166-0.0127,0.0293-0.0361,0.0391-0.0703l0.811-4.4316C39.0459,158.7607,39.061,158.7256,39.083,158.7129z"/>
	<path d="M30.8154,158.3359c0.0986,0.3496,0.2969,0.6865,0.5947,1.0098c0.3467,0.377,0.7163,0.6133,1.1084,0.709
		s0.73,0.0137,1.0122-0.2461c0.1475-0.1357,0.2373-0.3242,0.27-0.5664s-0.0518-0.5859-0.2544-1.0303l-0.708-1.5488
		c-0.2075-0.4512-0.2944-0.8467-0.2603-1.1875s0.1777-0.6279,0.4307-0.8613c0.2534-0.2324,0.5488-0.3604,0.8867-0.3828
		c0.3379-0.0234,0.687,0.0498,1.0479,0.2178c0.3613,0.168,0.6963,0.4199,1.0049,0.7549c0.3955,0.4297,0.6577,0.8984,0.7861,1.4043
		c0.1294,0.5068,0.1172,0.9658-0.0361,1.3789c-0.0122,0.0225-0.0259,0.04-0.0405,0.0537c-0.0146,0.0127-0.0361,0.0166-0.064,0.0098
		l-0.3022-0.0801c-0.0229-0.001-0.0405-0.0117-0.0542-0.0322c-0.0132-0.0205-0.0166-0.0391-0.0103-0.0557
		c0.0791-0.2686,0.1118-0.5381,0.0972-0.8076c-0.0137-0.2695-0.0791-0.5352-0.1958-0.7979
		c-0.1162-0.2617-0.2886-0.5166-0.5156-0.7646c-0.2441-0.2646-0.5029-0.4697-0.7773-0.6143
		c-0.2739-0.1445-0.5371-0.2148-0.7896-0.2109c-0.252,0.0039-0.4692,0.0898-0.6519,0.2568
		c-0.1997,0.1846-0.2964,0.4229-0.2886,0.7148s0.126,0.6748,0.3555,1.1484l0.5542,1.1699c0.2705,0.5654,0.3809,1.0137,0.3301,1.3428
		c-0.0503,0.3291-0.1846,0.5938-0.4023,0.7939c-0.271,0.249-0.5728,0.3906-0.9053,0.4248s-0.6714-0.0264-1.0156-0.1826
		c-0.3447-0.1553-0.6631-0.3926-0.9556-0.71c-0.3359-0.3652-0.5684-0.7598-0.6982-1.1846c-0.1294-0.4248-0.1431-0.8408-0.041-1.25
		c0.0068-0.0283,0.0161-0.0449,0.0273-0.0498c0.0117-0.0049,0.0288-0.0078,0.0513-0.0068l0.3193,0.082
		c0.0171,0.0059,0.0322,0.0166,0.0454,0.0312c0.0137,0.0146,0.02,0.0332,0.019,0.0557
		C30.708,157.6494,30.7168,157.9863,30.8154,158.3359z"/>
	<path d="M31.7368,150.6885l-6.9497,5.2139c-0.0576,0.043-0.1055,0.0391-0.144-0.0117l-0.1514-0.2021
		c-0.0381-0.0508-0.0317-0.0957,0.0195-0.1348l2.6299-1.9727c0.0322-0.0244,0.0469-0.0449,0.0435-0.0625
		s-0.0273-0.0293-0.0723-0.0361c-0.355-0.1133-0.6641-0.2217-0.9263-0.3252c-0.2627-0.1025-0.4961-0.2275-0.7012-0.374
		c-0.2046-0.1465-0.3936-0.335-0.5664-0.5654c-0.3838-0.5117-0.543-0.9971-0.4775-1.4561c0.0654-0.46,0.3062-0.8457,0.7222-1.1572
		l3.6763-2.7578c0.064-0.0488,0.1177-0.0439,0.1611,0.0137l0.1582,0.2119c0.019,0.0254,0.0269,0.0518,0.0229,0.0801
		s-0.019,0.0518-0.0444,0.0703l-3.5327,2.6504c-0.3774,0.2832-0.6021,0.5967-0.6738,0.9414
		c-0.0723,0.3438,0.0479,0.7236,0.3599,1.1396c0.168,0.2236,0.3579,0.4062,0.5688,0.5479c0.2114,0.1416,0.4565,0.2656,0.7358,0.3711
		s0.6143,0.2119,1.0044,0.3193l3.8491-2.8877c0.0576-0.0439,0.1079-0.0361,0.1514,0.0215l0.1582,0.2109
		C31.8018,150.5947,31.7944,150.6455,31.7368,150.6885z"/>
	<path d="M25.8301,142.5654c-0.0137,0.5195-0.1709,1.0078-0.4722,1.4648s-0.7271,0.8486-1.2778,1.1738
		c-0.5645,0.334-1.124,0.5234-1.6787,0.5684s-1.0659-0.0498-1.5347-0.2842c-0.4683-0.2334-0.8516-0.6025-1.1489-1.1045
		c-0.2974-0.5029-0.4355-1.0117-0.4146-1.5254c0.021-0.5146,0.1846-1.0039,0.4902-1.4688c0.3062-0.4648,0.7383-0.8623,1.2959-1.1924
		s1.1104-0.5146,1.6577-0.5557c0.5479-0.04,1.0532,0.0557,1.5161,0.2881c0.4634,0.2324,0.8433,0.6006,1.1406,1.1025
		C25.7012,141.5352,25.8433,142.0459,25.8301,142.5654z M24.0439,140.3242c-0.3843-0.1855-0.8081-0.2539-1.271-0.2031
		c-0.4624,0.0508-0.938,0.2207-1.4272,0.5098c-0.4888,0.29-0.8672,0.6279-1.1357,1.0146s-0.4146,0.7959-0.4375,1.2275
		c-0.0234,0.4326,0.0894,0.8584,0.3379,1.2783s0.5688,0.7256,0.9604,0.916c0.3921,0.1914,0.8232,0.2637,1.2935,0.2178
		c0.4702-0.0449,0.9497-0.2129,1.4385-0.502c0.4819-0.2852,0.856-0.623,1.1226-1.0137c0.2666-0.3896,0.4087-0.8018,0.4263-1.2344
		c0.0181-0.4336-0.0996-0.8643-0.3521-1.291C24.7466,140.8174,24.4282,140.5107,24.0439,140.3242z"/>
	<path d="M16.1401,137.1807l0.5581-0.251c0.0586-0.0264,0.0864-0.0527,0.084-0.0771c-0.0024-0.0254-0.0356-0.0498-0.0991-0.0742
		c-0.0918-0.0293-0.2339-0.0811-0.4258-0.1572c-0.1924-0.0762-0.3989-0.209-0.6201-0.3984
		c-0.2217-0.1904-0.4175-0.4746-0.5884-0.8545c-0.21-0.4668-0.2915-0.9365-0.2456-1.4092c0.0464-0.4727,0.2324-0.916,0.5591-1.3301
		c0.3271-0.415,0.8149-0.7676,1.4644-1.0605c0.6201-0.2783,1.2124-0.415,1.7759-0.4102c0.564,0.0049,1.0645,0.1436,1.5029,0.416
		c0.438,0.2725,0.7788,0.6787,1.0215,1.2178c0.1675,0.3721,0.2534,0.7197,0.2583,1.042s-0.0225,0.5938-0.0815,0.8135
		c-0.0249,0.0811-0.0249,0.1289-0.001,0.1445c0.0249,0.0156,0.0732,0.0068,0.1465-0.0264l2.0571-0.9248
		c0.0728-0.0332,0.1245-0.0166,0.1538,0.0488l0.1133,0.252c0.0264,0.0586,0.0063,0.1025-0.0591,0.1318l-7.376,3.3174
		c-0.0513,0.0234-0.0898,0.0303-0.1162,0.0195c-0.0264-0.0098-0.0513-0.04-0.0742-0.0918l-0.0791-0.1748
		C16.0361,137.2715,16.0601,137.2168,16.1401,137.1807z M20.9077,134.0156c0.0234-0.3477-0.0405-0.6895-0.1914-1.0254
		c-0.1904-0.4229-0.4644-0.749-0.8223-0.9785c-0.3574-0.2295-0.7778-0.3496-1.2607-0.3613
		c-0.4829-0.0107-1.0015,0.1094-1.5562,0.3584c-0.5835,0.2627-1.0171,0.5762-1.3008,0.9404
		c-0.2832,0.3643-0.4429,0.7451-0.479,1.1436c-0.0361,0.3975,0.0278,0.7783,0.1919,1.1436s0.3892,0.6494,0.6743,0.8545
		s0.5791,0.332,0.8813,0.3799s0.563,0.0234,0.7817-0.0752l2.8452-1.2803C20.8062,134.7305,20.8848,134.3643,20.9077,134.0156z"/>
	<path d="M4.896,94.3926c0.1377-0.3447,0.3203-0.6553,0.5483-0.9336c0.2275-0.2773,0.4839-0.5039,0.769-0.6807
		c0.2852-0.1758,0.584-0.2764,0.8965-0.2988c0.0322-0.0078,0.0542-0.0068,0.0659,0.001c0.0122,0.0088,0.0176,0.0293,0.0166,0.0605
		l0.0361,0.4336c0.0073,0.0244,0.0029,0.042-0.0137,0.0537c-0.0161,0.0117-0.0405,0.0205-0.0728,0.0273
		c-0.5718,0.1211-1.0376,0.3975-1.3975,0.832c-0.3604,0.4346-0.5488,0.9551-0.5659,1.5625
		c-0.0269,0.9766,0.3022,1.7314,0.9878,2.2666s1.6958,0.8213,3.0312,0.8584c1.2876,0.0361,2.2886-0.1943,3.0024-0.6914
		c0.7144-0.4961,1.0854-1.2637,1.1143-2.3037c0.0171-0.624-0.1182-1.1436-0.4067-1.5596s-0.7456-0.7529-1.3706-1.0107
		c-0.0234-0.0166-0.0308-0.041-0.022-0.0723l0.1313-0.4043c0.0083-0.0166,0.0186-0.0254,0.0308-0.0293
		c0.0117-0.0039,0.0298-0.001,0.0537,0.0068c0.2617,0.0879,0.5024,0.2061,0.7222,0.3564c0.2202,0.1504,0.4155,0.3232,0.5859,0.5205
		c0.1709,0.1963,0.3169,0.415,0.438,0.6543c0.1216,0.2393,0.2104,0.4941,0.2671,0.7637s0.0806,0.5488,0.0728,0.8359
		c-0.021,0.7686-0.2173,1.4189-0.5884,1.9531c-0.3706,0.5342-0.8979,0.9336-1.5815,1.1982
		c-0.6836,0.2656-1.5054,0.3848-2.4648,0.3584c-0.9678-0.0273-1.7915-0.1924-2.4712-0.4951
		c-0.6802-0.3027-1.1943-0.7256-1.5439-1.2676c-0.3486-0.541-0.5132-1.1846-0.4927-1.9277
		C4.6846,95.0928,4.7588,94.7363,4.896,94.3926z"/>
	<path d="M14.4385,85.9756c0.1104,0.3916,0.1348,0.8086,0.0723,1.252c-0.0879,0.626-0.312,1.0977-0.6714,1.415
		c-0.3599,0.3164-0.8052,0.4375-1.3359,0.3633c-0.4038-0.0566-0.7334-0.2148-0.9878-0.4727s-0.436-0.6162-0.5454-1.0762
		c-0.1089-0.46-0.1455-1.0186-0.1094-1.6758l0.0688-1.2627c0.001-0.0645-0.0098-0.1162-0.0327-0.1562
		c-0.0229-0.0391-0.062-0.0635-0.1172-0.0713l-0.3687-0.0518c-0.5068-0.0713-0.9316,0.0322-1.2739,0.3115
		c-0.3418,0.2793-0.5513,0.6885-0.627,1.2266c-0.0581,0.4121-0.0166,0.7939,0.124,1.1445c0.1401,0.3516,0.3696,0.6865,0.6885,1.0059
		c0.0283,0.0283,0.0454,0.0508,0.0508,0.0674c0.0059,0.0176-0.001,0.0371-0.02,0.0586l-0.2183,0.2598
		c-0.0181,0.0137-0.0356,0.0215-0.0518,0.0225c-0.0166,0.002-0.0391-0.0107-0.0674-0.0391
		c-0.3364-0.3057-0.5996-0.6768-0.7886-1.1113c-0.1895-0.4346-0.2446-0.9326-0.1655-1.4951
		c0.0635-0.4521,0.2002-0.832,0.4092-1.1426c0.2095-0.3096,0.4814-0.5342,0.8159-0.6729s0.7158-0.1777,1.1436-0.1172l4.2422,0.5967
		c0.0474,0.0068,0.0776,0.0215,0.0908,0.043c0.0132,0.0225,0.0166,0.0527,0.0112,0.0928l-0.0303,0.2139
		c-0.0044,0.0312-0.0156,0.0566-0.0347,0.0742c-0.0186,0.0176-0.0474,0.0234-0.0869,0.0176l-0.7285-0.0781
		c-0.0972,0.0029-0.1104,0.041-0.0405,0.1152C14.1333,85.2041,14.3281,85.585,14.4385,85.9756z M11.374,84.5449l-0.0654,1.0693
		c-0.0342,0.4717-0.0312,0.8818,0.0083,1.2305c0.04,0.3496,0.1118,0.6406,0.2163,0.873c0.105,0.2334,0.2412,0.4141,0.4087,0.542
		c0.168,0.1289,0.3667,0.209,0.5962,0.2422c0.4121,0.0576,0.7529-0.042,1.0234-0.2988s0.4399-0.627,0.5078-1.1104
		c0.041-0.293,0.0283-0.5869-0.0391-0.8838c-0.0674-0.2959-0.1729-0.5674-0.3159-0.8135c-0.1509-0.248-0.3154-0.4424-0.4932-0.585
		c-0.1777-0.1416-0.354-0.2256-0.5283-0.25l-1.1289-0.1592C11.4375,84.3838,11.374,84.4316,11.374,84.5449z"/>
	<path d="M15.4902,80.6904c-0.0239,0.0146-0.0513,0.0186-0.0825,0.0117l-5.9912-1.3633c-0.0703-0.0156-0.0981-0.0547-0.084-0.1172
		l0.0562-0.2461c0.0142-0.0625,0.0522-0.0859,0.1147-0.0723l0.7959,0.1816c0.0391,0.0088,0.064,0.0059,0.0752-0.0078
		c0.0117-0.0137,0.0054-0.04-0.019-0.0781c-0.2041-0.293-0.3594-0.5576-0.4653-0.7949s-0.1699-0.4609-0.1919-0.6719
		c-0.0215-0.21-0.0088-0.4199,0.0391-0.6309c0.0625-0.2725,0.1323-0.4004,0.2104-0.3828l0.3042,0.0693
		c0.0391,0.0088,0.0542,0.0332,0.0449,0.0713c-0.0068,0.0312-0.0181,0.0723-0.0337,0.1221
		c-0.0151,0.0498-0.0347,0.125-0.0576,0.2266c-0.0425,0.1875-0.0444,0.4023-0.0054,0.6455c0.0391,0.2422,0.1128,0.4785,0.2202,0.708
		c0.1079,0.2295,0.2407,0.4307,0.3984,0.6016c0.1582,0.1709,0.335,0.2793,0.5298,0.3232l4.1655,0.9482
		c0.0698,0.0156,0.0972,0.0586,0.0811,0.1289l-0.0586,0.2578C15.5298,80.6523,15.5142,80.6758,15.4902,80.6904z"/>
	<path d="M18.2593,70.7334c-0.0288,0.0117-0.0625,0.0117-0.1006,0l-0.5825-0.1875c-0.061-0.0195-0.0986-0.0195-0.1138,0.001
		s-0.0068,0.0605,0.0239,0.1211c0.0415,0.0811,0.1079,0.2197,0.1997,0.417c0.0923,0.1982,0.1558,0.4434,0.1919,0.7363
		s-0.0049,0.6221-0.1226,0.9883c-0.1567,0.4873-0.4116,0.8945-0.7651,1.2217c-0.353,0.3281-0.7925,0.5381-1.3174,0.6289
		c-0.5254,0.0918-1.123,0.0293-1.7935-0.1855c-0.647-0.208-1.1777-0.5049-1.5918-0.8906c-0.4136-0.3848-0.6904-0.8311-0.8301-1.3379
		c-0.1392-0.5078-0.1196-1.0391,0.0591-1.5947c0.1348-0.4189,0.313-0.7383,0.5347-0.9561c0.2217-0.2188,0.4292-0.3936,0.6226-0.5254
		c0.0752-0.0508,0.1084-0.0889,0.0991-0.1123c-0.0088-0.0244-0.0513-0.0488-0.1279-0.0732l-2.73-0.8779
		c-0.0762-0.0244-0.103-0.0713-0.0811-0.1396l0.0845-0.2627c0.0195-0.0605,0.0635-0.0801,0.1323-0.0586l8.2363,2.6494
		c0.0532,0.0176,0.0864,0.0391,0.0991,0.0635c0.0132,0.0254,0.0107,0.0645-0.0063,0.1182l-0.0586,0.1826
		C18.3086,70.6973,18.2881,70.7227,18.2593,70.7334z M12.4937,69.8877c-0.2466,0.2441-0.4268,0.541-0.5391,0.8916
		c-0.1421,0.4414-0.1592,0.873-0.0508,1.2949c0.1079,0.4209,0.3379,0.7979,0.689,1.1289c0.3516,0.332,0.8169,0.5908,1.3955,0.7764
		c0.6016,0.1943,1.1313,0.251,1.5898,0.1719c0.4585-0.0801,0.8354-0.2588,1.1309-0.5381c0.2959-0.2783,0.5059-0.6123,0.6309-1.001
		c0.1177-0.3652,0.1353-0.7207,0.0532-1.0664s-0.2217-0.6436-0.4194-0.8916c-0.1973-0.248-0.4102-0.4092-0.6387-0.4824
		l-2.9243-0.9414C13.0459,69.4248,12.7402,69.6436,12.4937,69.8877z"/>
	<path d="M12.6387,63.4092c0.1187,0.0488,0.1597,0.1172,0.1235,0.2061l-0.1226,0.2998c-0.0215,0.0527-0.0498,0.0801-0.0854,0.082
		c-0.0356,0.0029-0.0757-0.0049-0.1201-0.0225l-0.7886-0.3223c-0.0962-0.04-0.1265-0.1035-0.0903-0.1924l0.1182-0.2891
		c0.0361-0.0889,0.1025-0.1133,0.1987-0.0742L12.6387,63.4092z M19.8145,66.4062c0.0518,0.0215,0.084,0.043,0.0962,0.0654
		c0.0127,0.0225,0.0068,0.0635-0.0176,0.1221l-0.0771,0.1895c-0.021,0.0518-0.042,0.082-0.063,0.0908s-0.0537,0.0039-0.0981-0.0146
		l-5.665-2.3145c-0.0742-0.0303-0.0977-0.0791-0.0703-0.1455l0.0996-0.2441c0.0273-0.0664,0.0781-0.085,0.1523-0.0547
		L19.8145,66.4062z"/>
	<path d="M16.791,58.0547c0.0161-0.0059,0.0352-0.0029,0.0566,0.0068l0.2495,0.1191c0.043,0.0205,0.0547,0.0518,0.0342,0.0957
		l-0.6846,1.4414c-0.0244,0.0508-0.0107,0.0879,0.0396,0.1123l5.1709,2.4551c0.0796,0.0371,0.1035,0.0889,0.0728,0.1543
		l-0.1182,0.249c-0.0278,0.0576-0.0776,0.0693-0.1499,0.0352l-5.1816-2.46c-0.0503-0.0244-0.0859-0.0146-0.1064,0.0283
		l-0.5869,1.2363c-0.0205,0.043-0.0527,0.0547-0.0957,0.0342l-0.2495-0.1182c-0.0215-0.0107-0.0352-0.0234-0.041-0.04
		c-0.0059-0.0156-0.0034-0.0342,0.0068-0.0566l0.5815-1.2246c0.0239-0.0508,0.0107-0.0879-0.0396-0.1123l-0.8784-0.417
		c-0.4478-0.2119-0.7383-0.4678-0.8716-0.7656c-0.1328-0.2979-0.0967-0.6631,0.1094-1.0967l0.3706-0.7812
		c0.0205-0.043,0.0562-0.0527,0.1064-0.0283l0.228,0.1074c0.0288,0.0137,0.0449,0.0312,0.0493,0.0508
		c0.0039,0.0195-0.001,0.0439-0.0146,0.0723l-0.4121,0.8672c-0.127,0.2676-0.1367,0.4844-0.0293,0.6504
		c0.1069,0.166,0.2979,0.3145,0.5723,0.4443l0.9756,0.4629c0.0508,0.0244,0.0879,0.0107,0.1123-0.0391l0.6895-1.4531
		C16.7637,58.0703,16.7754,58.0605,16.791,58.0547z"/>
	<path d="M19.7295,52.6514c0.0161-0.0049,0.0352-0.001,0.0557,0.0107l0.2407,0.1348c0.042,0.0234,0.0513,0.0566,0.0278,0.0986
		l-0.7817,1.3916c-0.0273,0.0488-0.0166,0.0869,0.0322,0.1143l4.9912,2.8027c0.0767,0.043,0.0972,0.0957,0.062,0.1582
		l-0.1353,0.2412c-0.0312,0.0557-0.0815,0.0635-0.1514,0.0244l-5.0015-2.8086c-0.0488-0.0273-0.085-0.0195-0.1084,0.0225
		l-0.6699,1.1924c-0.0234,0.042-0.0562,0.0508-0.0981,0.0273l-0.2407-0.1348c-0.021-0.0117-0.0337-0.0264-0.0381-0.042
		c-0.0049-0.0166-0.001-0.0352,0.0107-0.0566l0.6641-1.1816c0.0273-0.0488,0.0166-0.0869-0.0322-0.1143l-0.8477-0.4766
		c-0.4326-0.2422-0.7051-0.5166-0.8174-0.8232s-0.0513-0.6689,0.1841-1.0869l0.4229-0.7539
		c0.0234-0.042,0.0596-0.0488,0.1084-0.0215l0.2197,0.123c0.0278,0.0156,0.0435,0.0342,0.0459,0.0537s-0.0039,0.0439-0.0195,0.0713
		l-0.4702,0.8369c-0.145,0.2588-0.1694,0.4736-0.0737,0.6465c0.0952,0.1729,0.2759,0.334,0.541,0.4834l0.9414,0.5283
		c0.0488,0.0273,0.0869,0.0166,0.1143-0.0322l0.7876-1.4023C19.7012,52.665,19.7134,52.6562,19.7295,52.6514z"/>
	<path d="M31.5034,44.7344c0.2095,0.4316,0.2646,0.8867,0.166,1.3643c-0.0981,0.4785-0.3491,0.9814-0.7515,1.5098
		c-0.4077,0.5342-0.8315,0.9082-1.271,1.1211s-0.9038,0.2686-1.3945,0.166c-0.4902-0.1025-1.0122-0.3652-1.5654-0.7871
		l-4.6362-3.5381c-0.0698-0.0537-0.0854-0.1055-0.0464-0.1562l0.2036-0.2676c0.0483-0.0635,0.1045-0.0713,0.168-0.0225
		l4.8271,3.6836c0.6172,0.4707,1.2021,0.6631,1.7559,0.5771c0.5532-0.085,1.0776-0.4531,1.5728-1.1016
		c0.335-0.4385,0.5425-0.8564,0.6235-1.252c0.0811-0.3965,0.0376-0.7715-0.1299-1.126s-0.4609-0.6914-0.8804-1.0117l-4.8081-3.6689
		c-0.0571-0.0439-0.0664-0.0908-0.0278-0.1416l0.1748-0.2295c0.0391-0.0508,0.0869-0.0547,0.144-0.0107l4.7983,3.6621
		C30.9355,43.8936,31.2944,44.3027,31.5034,44.7344z"/>
	<path d="M35.6201,41.5859l-4.4097-4.2783c-0.0518-0.0498-0.0552-0.0977-0.0107-0.1436l0.1758-0.1807
		c0.0444-0.0459,0.0898-0.0469,0.1357-0.0029l0.5337,0.5186c0.0288,0.0283,0.0518,0.0391,0.0684,0.0332
		c0.0171-0.0059,0.0249-0.0312,0.0244-0.0771c0.0566-0.3682,0.1157-0.6904,0.1763-0.9658c0.061-0.2754,0.1479-0.5254,0.2603-0.751
		c0.1128-0.2246,0.269-0.4404,0.4697-0.6475c0.4458-0.459,0.9004-0.6924,1.3643-0.6992s0.8823,0.1699,1.2554,0.5322l3.2988,3.2012
		c0.0571,0.0557,0.061,0.1094,0.0107,0.1602l-0.1836,0.1895c-0.0225,0.0234-0.0479,0.0352-0.0762,0.0352
		c-0.0283,0.001-0.0537-0.0098-0.0767-0.0322l-3.1694-3.0752c-0.3389-0.3291-0.6836-0.502-1.0347-0.5195
		c-0.3511-0.0166-0.7075,0.1611-1.0698,0.5342c-0.1948,0.2012-0.3457,0.417-0.4526,0.6475s-0.1904,0.4922-0.251,0.7842
		c-0.061,0.293-0.1138,0.6406-0.1587,1.042l3.4536,3.3516c0.0518,0.0498,0.0527,0.1006,0.0024,0.1523l-0.1841,0.1895
		C35.7227,41.6357,35.6714,41.6367,35.6201,41.5859z"/>
	<path d="M36.8188,29.5283c0.085,0.0957,0.0918,0.1748,0.02,0.2393l-0.2422,0.2148c-0.042,0.0371-0.0796,0.0488-0.1128,0.0361
		c-0.0332-0.0137-0.0659-0.0381-0.0977-0.0742l-0.5659-0.6367c-0.0688-0.0781-0.0679-0.1484,0.0039-0.2119l0.2334-0.208
		c0.0718-0.0635,0.1421-0.0566,0.2114,0.0215L36.8188,29.5283z M41.9395,35.3799c0.0371,0.042,0.0562,0.0762,0.0576,0.1016
		s-0.022,0.0596-0.0698,0.1025l-0.1523,0.1348c-0.042,0.0381-0.0742,0.0557-0.0967,0.0547c-0.0229-0.002-0.0498-0.0205-0.082-0.0566
		l-4.0649-4.5742c-0.0532-0.0596-0.0527-0.1133,0.001-0.1611l0.1973-0.1758c0.0537-0.0479,0.1074-0.042,0.1606,0.0176
		L41.9395,35.3799z"/>
	<path d="M44.731,25.1787c0.0249,0.0059,0.041,0.0264,0.0479,0.0615l1.7783,6.3564c0.0283,0.0889-0.002,0.168-0.0903,0.2363
		l-0.1333,0.1025c-0.1011,0.0781-0.189,0.0957-0.2632,0.0518l-5.6943-3.3379c-0.0308-0.0273-0.0459-0.0527-0.0454-0.0791
		c0.0005-0.0254,0.0166-0.0508,0.0483-0.0752l0.209-0.1611c0.0317-0.0244,0.061-0.0391,0.0869-0.0439
		c0.0264-0.0049,0.0552,0.0059,0.0859,0.0322l5.0654,2.9746c0.1367,0.0859,0.1851,0.0439,0.1445-0.127l-1.5869-5.6553
		c-0.0068-0.0352-0.0059-0.0635,0.0024-0.0859c0.0088-0.0215,0.0254-0.042,0.0508-0.0615l0.2095-0.1611
		C44.6777,25.1816,44.7061,25.1729,44.731,25.1787z"/>
	<path d="M50.7061,26.7969c0.3887,0.2158,0.7998,0.3271,1.2339,0.334c0.4336,0.0078,0.8403-0.1064,1.2207-0.3438
		c0.4072-0.2539,0.709-0.5557,0.9062-0.9053c0.1973-0.3486,0.292-0.7334,0.2847-1.1533c-0.0005-0.0469,0.0063-0.0771,0.0215-0.0908
		c0.0146-0.0137,0.0366-0.0205,0.0654-0.0195l0.3291,0.0068c0.0581,0.001,0.0825,0.0332,0.0737,0.0947
		c-0.0034,0.3418-0.0586,0.6621-0.1655,0.959c-0.1064,0.2979-0.2656,0.5713-0.4775,0.8213s-0.4775,0.4746-0.7964,0.6738
		c-0.4888,0.3047-0.9902,0.457-1.5039,0.457c-0.5142,0-1.0063-0.1436-1.4771-0.4297s-0.8755-0.7002-1.2144-1.2432
		c-0.3726-0.5977-0.583-1.1738-0.6318-1.7275c-0.0483-0.5547,0.043-1.0615,0.2744-1.5215c0.2314-0.4609,0.585-0.8389,1.0601-1.1357
		c0.4819-0.2998,0.9624-0.4512,1.4419-0.4531c0.48-0.0029,0.9404,0.1396,1.3823,0.4248s0.8408,0.7129,1.1968,1.2832
		c0.0254,0.04,0.0493,0.0869,0.0723,0.1387s-0.0034,0.1006-0.0776,0.1475l-4.1851,2.6094
		c-0.0205,0.0127-0.0259,0.0381-0.0171,0.0752c0.0088,0.0361,0.0239,0.0723,0.0449,0.1055
		C50.0049,26.2852,50.3174,26.582,50.7061,26.7969z M53.2275,23.04c0.0747-0.0469,0.1157-0.0869,0.1235-0.1201
		s-0.0054-0.0762-0.0391-0.1309c-0.2329-0.373-0.5229-0.6641-0.8696-0.8721s-0.7183-0.3135-1.1157-0.3154
		c-0.397-0.002-0.793,0.1201-1.1865,0.3652c-0.4478,0.2793-0.7554,0.6221-0.9219,1.0273c-0.1665,0.4062-0.2207,0.8223-0.1626,1.2471
		c0.0581,0.4258,0.1929,0.8086,0.4048,1.1484L53.2275,23.04z"/>
	<path d="M58.6875,23.9727c-0.0273-0.0088-0.0479-0.0273-0.0625-0.0557l-2.7842-5.4775c-0.0322-0.0635-0.0205-0.1104,0.0366-0.1396
		l0.2246-0.1143c0.0571-0.0283,0.1001-0.0146,0.1294,0.042l0.3696,0.7275c0.0181,0.0361,0.0361,0.0537,0.0542,0.0537
		c0.0176,0,0.0337-0.0215,0.0479-0.0654c0.0942-0.3438,0.1987-0.6318,0.3135-0.8652s0.2456-0.4258,0.3931-0.5771
		s0.3179-0.2764,0.5103-0.374c0.2495-0.127,0.3926-0.1543,0.4287-0.083l0.1416,0.2783c0.0181,0.0352,0.0093,0.0625-0.0264,0.0801
		c-0.0288,0.0146-0.0669,0.0322-0.1152,0.0518c-0.0483,0.0205-0.1187,0.0537-0.2114,0.1006
		c-0.1709,0.0869-0.3374,0.2236-0.499,0.4092c-0.1611,0.1855-0.2959,0.3926-0.4033,0.6221c-0.1079,0.2295-0.1768,0.46-0.2075,0.6914
		c-0.0308,0.2305-0.0005,0.4355,0.0898,0.6133l1.936,3.8086c0.0327,0.0645,0.0166,0.1123-0.0474,0.1455l-0.2354,0.1191
		C58.7417,23.9785,58.7139,23.9814,58.6875,23.9727z"/>
	<path d="M64.3599,15.0459c-0.3623-0.0273-0.7466,0.042-1.1533,0.21c-0.4731,0.1953-0.8223,0.4609-1.0474,0.7969
		c-0.2251,0.335-0.2642,0.6797-0.1177,1.0352c0.0767,0.1846,0.2227,0.334,0.4385,0.4482s0.5674,0.1533,1.0542,0.1162l1.6992-0.1299
		c0.4941-0.04,0.8955,0.0146,1.2041,0.1641c0.3081,0.1504,0.5283,0.3838,0.6597,0.7021c0.1313,0.3174,0.1489,0.6387,0.0542,0.9639
		c-0.0952,0.3252-0.2842,0.6279-0.5659,0.9092c-0.2822,0.2803-0.6338,0.5078-1.0557,0.6826
		c-0.5396,0.2227-1.0693,0.3076-1.5894,0.2539c-0.5195-0.0537-0.9468-0.2236-1.2812-0.5098
		c-0.0166-0.0186-0.0288-0.0381-0.0361-0.0566c-0.0078-0.0176-0.0034-0.0391,0.0122-0.0635l0.1802-0.2559
		c0.0088-0.0205,0.0249-0.0342,0.0483-0.0391c0.0239-0.0059,0.0425-0.0029,0.0562,0.0088c0.2246,0.167,0.4658,0.29,0.7236,0.3701
		c0.2578,0.0791,0.5303,0.1094,0.8169,0.0908c0.2861-0.0186,0.585-0.0928,0.8955-0.2207c0.3325-0.1377,0.6143-0.3096,0.8442-0.5176
		c0.2305-0.207,0.3872-0.4307,0.4707-0.668c0.0835-0.2383,0.0776-0.4717-0.0166-0.7012c-0.104-0.251-0.2944-0.4238-0.5708-0.5166
		c-0.2769-0.0938-0.6768-0.1143-1.2007-0.0625l-1.2891,0.1172c-0.625,0.0586-1.083,0.0078-1.3745-0.1533
		s-0.4937-0.3779-0.6069-0.6514c-0.1401-0.3408-0.1694-0.6729-0.0869-0.9971c0.0825-0.3232,0.2563-0.6201,0.5215-0.8896
		c0.2651-0.2705,0.5977-0.4873,0.9966-0.6523c0.4585-0.1895,0.9092-0.2715,1.3525-0.2471c0.4429,0.0254,0.8384,0.1562,1.1875,0.3926
		c0.0239,0.0156,0.0361,0.0303,0.0371,0.043s-0.0029,0.0293-0.0117,0.0498l-0.186,0.2725
		c-0.0122,0.0137-0.0273,0.0234-0.0454,0.0312c-0.0186,0.0078-0.0381,0.0078-0.0591-0.001
		C65.041,15.1826,64.7217,15.0742,64.3599,15.0459z"/>
	<path d="M68.666,11.2012c0.041,0.1221,0.0156,0.1973-0.0752,0.2285l-0.3071,0.1025c-0.0532,0.0176-0.0928,0.0137-0.1177-0.0107
		c-0.0254-0.0254-0.0459-0.0615-0.061-0.1064l-0.271-0.8076c-0.0327-0.0986-0.0039-0.1631,0.0874-0.1943l0.2954-0.0986
		c0.0913-0.0312,0.1533,0.0029,0.1865,0.1016L68.666,11.2012z M71.0806,18.5938c0.0176,0.0527,0.022,0.0918,0.0132,0.1152
		c-0.0088,0.0244-0.0435,0.0459-0.104,0.0664l-0.1934,0.0654c-0.0532,0.0176-0.0898,0.0215-0.1104,0.0117
		c-0.02-0.0107-0.0376-0.0381-0.0532-0.084l-1.9448-5.8027c-0.0254-0.0752-0.0039-0.125,0.0645-0.1484l0.2505-0.083
		c0.0679-0.0234,0.1147,0.0029,0.1401,0.0791L71.0806,18.5938z"/>
	<path d="M73.6743,11.752c-0.0542,0.0146-0.0732,0.0488-0.0586,0.1035l1.1597,4.2109c0.1172,0.4238,0.2549,0.6846,0.4146,0.7822
		c0.1597,0.0967,0.355,0.1133,0.5864,0.0498l0.9141-0.252c0.0308-0.0088,0.0552-0.0088,0.0742-0.002
		c0.0186,0.0078,0.0322,0.0273,0.0405,0.0576l0.0542,0.1963c0.0107,0.0391-0.0049,0.0723-0.0474,0.1006
		c-0.0439,0.0205-0.1284,0.0518-0.2539,0.0947c-0.125,0.043-0.249,0.083-0.3711,0.1211s-0.2104,0.0645-0.2646,0.0791
		c-0.4624,0.127-0.8101,0.1094-1.042-0.0557c-0.2319-0.1641-0.4155-0.4932-0.5518-0.9863l-1.1758-4.2695
		c-0.0146-0.0537-0.0493-0.0732-0.103-0.0586l-1.0762,0.2959c-0.0464,0.0127-0.0757-0.0039-0.0884-0.0498l-0.0732-0.2666
		c-0.0127-0.0459,0.0039-0.0752,0.0503-0.0879l1.0874-0.2998c0.0464-0.0127,0.062-0.0459,0.0469-0.0996l-0.415-1.915
		c-0.021-0.0771-0.001-0.124,0.0605-0.1406l0.1621-0.0449c0.0693-0.0195,0.1157,0.0137,0.1392,0.0986l0.5161,1.874
		c0.0151,0.0537,0.0493,0.0732,0.1035,0.0586l1.6079-0.4424c0.0464-0.0127,0.0757,0.0039,0.0889,0.0498l0.0732,0.2666
		c0.0127,0.0459-0.0044,0.0752-0.0503,0.0879L73.6743,11.752z"/>
	<path d="M79.9595,18.3076c-0.1392,0.0186-0.2148-0.0039-0.2266-0.0664l-0.0337-0.1768c-0.0103-0.0557,0.0044-0.0947,0.0449-0.1191
		c0.04-0.0234,0.1309-0.0488,0.2725-0.0762l0.7075-0.1338c0.1885-0.0361,0.3462-0.1387,0.4727-0.3096
		c0.1265-0.1699,0.2207-0.3711,0.2827-0.6025c0.0615-0.2324,0.0874-0.4609,0.0771-0.6865
		c-0.0103-0.2266-0.0615-0.4121-0.1543-0.5576l-3.3032-5.248c-0.0234-0.0361-0.0317-0.0693-0.0249-0.0996
		c0.0063-0.0293,0.0371-0.0498,0.0923-0.0605l0.2476-0.0469c0.0396-0.0068,0.0718-0.0068,0.0977,0
		c0.0259,0.0078,0.0464,0.0303,0.062,0.0684l3.0435,4.8457c0.0449,0.0645,0.0864,0.0918,0.125,0.0801s0.0649-0.0674,0.0786-0.168
		l1.0186-5.5791c0.0098-0.0342,0.021-0.0586,0.0347-0.0742c0.0137-0.0146,0.0361-0.0244,0.0674-0.0303l0.2593-0.0498
		C83.2402,9.21,83.27,9.2158,83.29,9.2363c0.02,0.0215,0.0249,0.0449,0.0137,0.0713l-1.3638,7.5625
		c-0.0415,0.2109-0.1045,0.3936-0.189,0.5488c-0.085,0.1543-0.1885,0.2832-0.311,0.3887c-0.1226,0.1045-0.2612,0.1895-0.4155,0.2559
		c-0.1543,0.0654-0.3262,0.1162-0.5146,0.1523C80.2817,18.2588,80.0981,18.2891,79.9595,18.3076z"/>
</g>
<g>
</g>
<g>
</g>
<g>
</g>
<g>
</g>
<g>
</g>
<g>
</g>
</svg>
