<?xml version="1.0" encoding="utf-8"?>
<!-- Generator: Adobe Illustrator 16.0.0, SVG Export Plug-In . SVG Version: 6.00 Build 0)  -->
<!DOCTYPE svg PUBLIC "-//W3C//DTD SVG 1.1//EN" "http://www.w3.org/Graphics/SVG/1.1/DTD/svg11.dtd">
<svg version="1.1" id="Layer_1" xmlns="http://www.w3.org/2000/svg" xmlns:xlink="http://www.w3.org/1999/xlink" x="0px" y="0px"
	 width="340.667px" height="140.667px" viewBox="0 0 340.667 140.667" enable-background="new 0 0 340.667 140.667"
	 xml:space="preserve">
<g>
	<g>
		<g>
			<path d="M56.5723,137.0093v-8.46h4.8281v0.6328h-4.0547v3.1162h2.918v0.6338h-2.918v3.4443h4.2764v0.6328H56.5723z"/>
			<path d="M63.8604,128.5493v5.7646c0,1.6182,0.7852,2.1787,2.2842,2.1787c1.5,0,2.2852-0.5605,2.2852-2.1787v-5.7646h0.7734
				v5.6943c0,1.9219-1.0078,2.8828-3.0586,2.8828c-2.0498,0-3.0576-0.9609-3.0576-2.8828v-5.6943H63.8604z"/>
			<path d="M77.3232,137.0093h-0.8438l-1.9688-3.8662h-2.1914v3.8662h-0.7725v-8.46h2.8584c1.6641,0,2.6016,0.9141,2.6016,2.2959
				c0,1.1143-0.5508,1.8516-1.7578,2.1572L77.3232,137.0093z M72.3193,132.5103h2.0859c1.125,0,1.8281-0.6211,1.8281-1.665
				c0-1.042-0.6094-1.6631-1.8281-1.6631h-2.0859V132.5103z"/>
			<path d="M85.4307,132.7798c0,2.4951-1.2188,4.3467-3.3389,4.3467c-2.1211,0-3.3398-1.8516-3.3398-4.3467
				c0-2.4961,1.2188-4.3467,3.3398-4.3467C84.2119,128.4331,85.4307,130.2837,85.4307,132.7798z M84.6572,132.7798
				c0-2.3789-1.0068-3.7148-2.5654-3.7148s-2.5664,1.3359-2.5664,3.7148c0,2.3779,1.0078,3.7129,2.5664,3.7129
				S84.6572,135.1577,84.6572,132.7798z"/>
			<path d="M87.1768,137.0093v-8.46h2.5537c2.0156,0,2.8594,0.9375,2.8594,2.3555c0,1.417-0.8438,2.3545-2.8594,2.3545h-1.7803v3.75
				H87.1768z M87.9502,132.6274h1.7803c1.4648,0,2.0859-0.6094,2.0859-1.7227c0-1.1123-0.6211-1.7227-2.0859-1.7227h-1.7803
				V132.6274z"/>
			<path d="M94.3359,137.0093v-8.46h4.8271v0.6328h-4.0537v3.1162h2.917v0.6338h-2.917v3.4443h4.2764v0.6328H94.3359z"/>
			<path d="M102.6777,128.5493h1.1836l2.6719,8.46h-0.8203l-0.8555-2.7656h-3.1992l-0.8662,2.7656h-0.8203L102.6777,128.5493z
				 M104.6816,133.6118l-1.4062-4.4297h-0.0234l-1.3945,4.4297H104.6816z"/>
			<path d="M108.0088,128.5493h1.3008l4.0186,7.0537h0.0234v-7.0537h0.7734v8.46h-0.7969l-4.5225-7.8271h-0.0234v7.8271h-0.7734
				V128.5493z"/>
			<path d="M121.5537,128.5493h1.1836l2.6709,8.46h-0.8203l-0.8555-2.7656h-3.1982l-0.8672,2.7656h-0.8203L121.5537,128.5493z
				 M123.5566,133.6118l-1.4053-4.4297h-0.0234l-1.3945,4.4297H123.5566z"/>
			<path d="M126.8027,134.6421c0.3281,1.29,1.0771,1.8506,2.4141,1.8506c1.0537,0,1.6865-0.667,1.6865-1.6865
				c0-2.2725-4.5811-1.3828-4.5811-4.1826c0-1.2539,0.8672-2.1904,2.4375-2.1904c1.335,0,2.3193,0.7256,2.7061,2.0264l-0.668,0.1992
				c-0.3047-0.9375-0.9609-1.5938-2.0381-1.5938c-0.9844,0-1.6641,0.5625-1.6641,1.5586c0,0.5742,0.1641,0.9834,1.7217,1.5693
				c2.3789,0.8906,2.8594,1.4766,2.8594,2.6953c0,1.4414-1.207,2.2383-2.5771,2.2383c-1.6172,0-2.543-0.7148-3.0117-2.2617
				L126.8027,134.6421z"/>
			<path d="M133.3174,134.6421c0.3281,1.29,1.0781,1.8506,2.4141,1.8506c1.0537,0,1.6865-0.667,1.6865-1.6865
				c0-2.2725-4.5811-1.3828-4.5811-4.1826c0-1.2539,0.8672-2.1904,2.4365-2.1904c1.3359,0,2.3203,0.7256,2.707,2.0264l-0.668,0.1992
				c-0.3047-0.9375-0.9609-1.5938-2.0391-1.5938c-0.9834,0-1.6631,0.5625-1.6631,1.5586c0,0.5742,0.1641,0.9834,1.7217,1.5693
				c2.3789,0.8906,2.8594,1.4766,2.8594,2.6953c0,1.4414-1.207,2.2383-2.5771,2.2383c-1.6172,0-2.543-0.7148-3.0117-2.2617
				L133.3174,134.6421z"/>
			<path d="M145.9834,132.7798c0,2.4951-1.2188,4.3467-3.3398,4.3467c-2.1201,0-3.3389-1.8516-3.3389-4.3467
				c0-2.4961,1.2188-4.3467,3.3389-4.3467C144.7646,128.4331,145.9834,130.2837,145.9834,132.7798z M145.21,132.7798
				c0-2.3789-1.0078-3.7148-2.5664-3.7148s-2.5654,1.3359-2.5654,3.7148c0,2.3779,1.0068,3.7129,2.5654,3.7129
				S145.21,135.1577,145.21,132.7798z"/>
			<path d="M152.3691,131.0337c-0.3633-1.2412-1.0439-1.9688-2.0625-1.9688c-1.6758,0-2.4141,1.6406-2.4141,3.7148
				c0,2.0732,0.7383,3.7129,2.4951,3.7129c1.3604,0,1.8516-0.96,2.1328-2.0615l0.7266,0.1289
				c-0.3164,1.5117-1.1006,2.5664-2.8701,2.5664c-2.0508,0-3.2578-1.7334-3.2578-4.3467s1.207-4.3467,3.2578-4.3467
				c1.5107,0,2.3438,1.0654,2.7061,2.4482L152.3691,131.0337z"/>
			<path d="M154.958,128.5493h0.7734v8.459h-0.7734V128.5493z"/>
			<path d="M159.9727,128.5493h1.1836l2.6709,8.459h-0.8193l-0.8555-2.7646h-3.1992l-0.8672,2.7646h-0.8203L159.9727,128.5493z
				 M161.9756,133.6118l-1.4053-4.4297h-0.0234l-1.3945,4.4297H161.9756z"/>
			<path d="M163.4189,128.5493h5.7881v0.6328h-2.5068v7.8262h-0.7734v-7.8262h-2.5078V128.5493z"/>
			<path d="M170.8125,128.5493h0.7734v8.459h-0.7734V128.5493z"/>
			<path d="M180.0693,132.7798c0,2.4951-1.2188,4.3467-3.3389,4.3467c-2.1211,0-3.3389-1.8516-3.3389-4.3467
				c0-2.4961,1.2178-4.3467,3.3389-4.3467C178.8506,128.4331,180.0693,130.2837,180.0693,132.7798z M179.2959,132.7798
				c0-2.3789-1.0078-3.7148-2.5654-3.7148c-1.5586,0-2.5664,1.3359-2.5664,3.7148c0,2.3779,1.0078,3.7129,2.5664,3.7129
				C178.2881,136.4927,179.2959,135.1577,179.2959,132.7798z"/>
			<path d="M181.8145,128.5493h1.3008l4.0195,7.0537h0.0234v-7.0537h0.7734v8.459h-0.7969l-4.5225-7.8262h-0.0234v7.8262h-0.7744
				V128.5493z"/>
			<path d="M193.5312,137.0083v-8.459H198.5v0.6328h-4.1943v3.1162h3.0576v0.6338h-3.0576v4.0762H193.5312z"/>
			<path d="M206.1162,132.7798c0,2.4951-1.2197,4.3467-3.3408,4.3467c-2.1201,0-3.3389-1.8516-3.3389-4.3467
				c0-2.4961,1.2188-4.3467,3.3389-4.3467C204.8965,128.4331,206.1162,130.2837,206.1162,132.7798z M205.3418,132.7798
				c0-2.3789-1.0068-3.7148-2.5664-3.7148c-1.5576,0-2.5654,1.3359-2.5654,3.7148c0,2.3779,1.0078,3.7129,2.5654,3.7129
				C204.335,136.4927,205.3418,135.1577,205.3418,132.7798z"/>
			<path d="M213.6387,137.0083h-0.8438l-1.9688-3.8652h-2.1914v3.8652h-0.7725v-8.459h2.8584c1.6641,0,2.6006,0.9141,2.6006,2.2959
				c0,1.1143-0.5498,1.8516-1.7568,2.1572L213.6387,137.0083z M208.6348,132.5103h2.0859c1.124,0,1.8271-0.6211,1.8271-1.665
				c0-1.042-0.6094-1.6631-1.8271-1.6631h-2.0859V132.5103z"/>
			<path d="M223.5742,131.0337c-0.3643-1.2412-1.0439-1.9688-2.0625-1.9688c-1.6758,0-2.4141,1.6406-2.4141,3.7148
				c0,2.0732,0.7383,3.7129,2.4951,3.7129c1.3604,0,1.8516-0.96,2.1338-2.0615l0.7256,0.1289
				c-0.3164,1.5117-1.1006,2.5664-2.8701,2.5664c-2.0508,0-3.2578-1.7334-3.2578-4.3467s1.207-4.3467,3.2578-4.3467
				c1.5107,0,2.3438,1.0654,2.707,2.4482L223.5742,131.0337z"/>
			<path d="M232.1631,132.7798c0,2.4951-1.2188,4.3467-3.3398,4.3467s-3.3398-1.8516-3.3398-4.3467
				c0-2.4961,1.2188-4.3467,3.3398-4.3467S232.1631,130.2837,232.1631,132.7798z M231.3896,132.7798
				c0-2.3789-1.0078-3.7148-2.5664-3.7148c-1.5596,0-2.5654,1.3359-2.5654,3.7148c0,2.3779,1.0059,3.7129,2.5654,3.7129
				C230.3818,136.4927,231.3896,135.1577,231.3896,132.7798z"/>
			<path d="M233.9082,137.0083v-8.459h1.3594l2.3301,7.1709h0.0244l2.3438-7.1709h1.3594v8.459h-0.7734v-7.8262h-0.0244
				l-2.542,7.8262h-0.7393l-2.542-7.8262h-0.0225v7.8262H233.9082z"/>
			<path d="M243.6689,137.0083v-8.459h2.5527c2.0156,0,2.8594,0.9375,2.8594,2.3555c0,1.417-0.8438,2.3545-2.8594,2.3545h-1.7803
				v3.749H243.6689z M244.4414,132.6274h1.7803c1.4658,0,2.0859-0.6094,2.0859-1.7227c0-1.1123-0.6201-1.7227-2.0859-1.7227h-1.7803
				V132.6274z"/>
			<path d="M251.5996,128.5493v5.7646c0,1.6182,0.7852,2.1787,2.2852,2.1787s2.2852-0.5605,2.2852-2.1787v-5.7646h0.7734v5.6943
				c0,1.9219-1.0078,2.8828-3.0586,2.8828c-2.0498,0-3.0586-0.9609-3.0586-2.8828v-5.6943H251.5996z"/>
			<path d="M258.4775,128.5493h5.7881v0.6328h-2.5068v7.8262h-0.7734v-7.8262h-2.5078V128.5493z"/>
			<path d="M265.8008,137.0083v-8.459h4.8271v0.6328h-4.0537v3.1162h2.917v0.6338h-2.917v3.4443h4.2764v0.6318H265.8008z"/>
			<path d="M278.0908,137.0083h-0.8428l-1.9697-3.8652h-2.1895v3.8652h-0.7744v-8.459h2.8594c1.665,0,2.6016,0.9141,2.6016,2.2959
				c0,1.1143-0.5508,1.8516-1.7578,2.1572L278.0908,137.0083z M273.0889,132.5103h2.085c1.125,0,1.8281-0.6211,1.8281-1.665
				c0-1.042-0.6084-1.6631-1.8281-1.6631h-2.085V132.5103z"/>
			<path d="M288.1914,131.0103c-0.2568-1.0781-0.9258-1.9453-2.1797-1.9453c-1.4873,0-2.46,1.4297-2.46,3.7148
				c0,1.8154,0.5273,3.7129,2.707,3.7129c1.1953,0,1.9795-0.9131,1.9795-2.0371v-0.7744h-2.1328v-0.6318h2.9062v3.959h-0.668
				v-0.8311h-0.0234c-0.5029,0.6562-1.125,0.9492-2.2959,0.9492c-1.8857,0-3.2461-1.5469-3.2461-4.3467
				c0-2.8008,1.4648-4.3467,3.2812-4.3467c1.5693,0,2.5664,1.0068,2.8584,2.4482L288.1914,131.0103z"/>
			<path d="M296.9785,137.0083h-0.8438l-1.9688-3.8652h-2.1904v3.8652h-0.7734v-8.459h2.8594c1.6641,0,2.6016,0.9141,2.6016,2.2959
				c0,1.1143-0.5508,1.8516-1.7578,2.1572L296.9785,137.0083z M291.9756,132.5103h2.0859c1.125,0,1.8281-0.6211,1.8281-1.665
				c0-1.042-0.6094-1.6631-1.8281-1.6631h-2.0859V132.5103z"/>
			<path d="M300.8457,128.5493h1.1836l2.6709,8.459h-0.8203l-0.8545-2.7646h-3.1992l-0.8662,2.7646h-0.8213L300.8457,128.5493z
				 M302.8486,133.6118l-1.4062-4.4297h-0.0234l-1.3936,4.4297H302.8486z"/>
			<path d="M306.1758,137.0083v-8.459h2.5557c2.0156,0,2.8584,0.9375,2.8584,2.3555c0,1.417-0.8428,2.3545-2.8584,2.3545h-1.7812
				v3.749H306.1758z M306.9502,132.6274h1.7812c1.4639,0,2.085-0.6094,2.085-1.7227c0-1.1123-0.6211-1.7227-2.085-1.7227h-1.7812
				V132.6274z"/>
			<path d="M313.3359,128.5493h0.7725v3.749h4.5693v-3.749h0.7744v8.459h-0.7744v-4.0762h-4.5693v4.0762h-0.7725V128.5493z"/>
			<path d="M321.8662,128.5493h0.7725v8.459h-0.7725V128.5493z"/>
			<path d="M329.6924,131.0337c-0.3633-1.2412-1.043-1.9688-2.0625-1.9688c-1.6758,0-2.4141,1.6406-2.4141,3.7148
				c0,2.0732,0.7383,3.7129,2.4961,3.7129c1.3594,0,1.8516-0.96,2.1318-2.0615l0.7275,0.1289
				c-0.3164,1.5117-1.1016,2.5664-2.8711,2.5664c-2.0498,0-3.2568-1.7344-3.2568-4.3467c0-2.6133,1.207-4.3467,3.2568-4.3467
				c1.5107,0,2.3428,1.0654,2.707,2.4482L329.6924,131.0337z"/>
			<path d="M332.1289,134.6421c0.3281,1.2891,1.0781,1.8506,2.4141,1.8506c1.0537,0,1.6865-0.667,1.6865-1.6865
				c0-2.2725-4.582-1.3828-4.582-4.1826c0-1.2539,0.8682-2.1904,2.4385-2.1904c1.335,0,2.3193,0.7256,2.7061,2.0264l-0.668,0.1992
				c-0.3047-0.9375-0.96-1.5938-2.0381-1.5938c-0.9844,0-1.6641,0.5625-1.6641,1.5586c0,0.5742,0.1631,0.9834,1.7227,1.5693
				c2.3789,0.8906,2.8584,1.4766,2.8584,2.6953c0,1.4414-1.207,2.2383-2.5771,2.2383c-1.6182,0-2.543-0.7148-3.0117-2.2617
				L332.1289,134.6421z"/>
		</g>
		<g>
			<linearGradient id="SVGID_1_" gradientUnits="userSpaceOnUse" x1="3.6641" y1="36.6079" x2="56.5723" y2="36.6079">
				<stop  offset="0" style="stop-color:#FFFFFF"/>
				<stop  offset="1" style="stop-color:#FFED00"/>
			</linearGradient>
			<rect x="3.6641" y="3.5405" fill="url(#SVGID_1_)" width="52.9082" height="66.1348"/>
			<polygon points="69.7998,16.7661 109.4814,16.7661 109.4814,3.5405 56.5723,3.5405 56.5723,16.7661 16.8906,16.7661 
				16.8906,29.9946 56.5723,29.9946 56.5723,43.2212 16.8906,43.2212 16.8906,56.4487 56.5723,56.4487 56.5723,69.6753 
				109.4814,69.6753 109.4814,29.9946 83.0273,29.9946 83.0273,43.2212 96.2539,43.2212 96.2539,56.4487 69.7998,56.4487 			"/>
		</g>
	</g>
	<g>
		<path d="M56.5723,114.5356v-25.5h14.8057v4.0625H61.166v6.3125h6.9927v4.0625H61.166v7h10.2119v4.0625H56.5723z"/>
		<path d="M84.5381,114.5522l-0.2222-0.8867l-0.0737,0.0371c-0.79,0.418-1.5674,0.7148-2.332,0.8867
			c-0.7651,0.1719-1.604,0.2588-2.5171,0.2588c-0.5923,0-1.2153-0.0742-1.8691-0.2217s-1.252-0.4004-1.7949-0.7578
			s-0.9937-0.832-1.3511-1.4229c-0.3579-0.5908-0.5366-1.3311-0.5366-2.2178V96.8481h4.375v12.9443
			c0,0.4434,0.1538,0.7832,0.4614,1.0176s0.646,0.3506,1.0151,0.3506c0.9595,0,1.7529-0.1162,2.3809-0.3506
			c0.6274-0.2344,1.1748-0.5,1.6426-0.7959v-13.166h4.375v17.7041H84.5381z"/>
		<path d="M101.751,101.1323c-0.7158-0.2217-1.2583-0.3516-1.6284-0.3887s-0.6782-0.0547-0.9248-0.0547
			c-0.4443,0-0.9067,0.1416-1.3877,0.4258c-0.481,0.2832-0.894,0.6719-1.2393,1.166v12.2549h-4.375V96.8022h3.5596l0.3335,1.7383
			h0.0742c0.2964-0.543,0.7222-1.0176,1.2773-1.4248c0.5547-0.4072,1.2642-0.6113,2.1274-0.6113
			c0.2959,0,0.6162,0.0068,0.9619,0.0186c0.3452,0.0127,0.8384,0.1055,1.48,0.2773L101.751,101.1323z"/>
		<path d="M119.6924,105.6919c0,3.1865-0.6299,5.5137-1.8892,6.9834s-3.2964,2.2041-6.1108,2.2041
			c-2.7656,0-4.79-0.7412-6.0742-2.2227s-1.9258-3.8154-1.9258-7.002c0-3.1855,0.6294-5.5068,1.8887-6.9639
			s3.2964-2.1865,6.1113-2.1865c2.7651,0,4.7896,0.7354,6.0737,2.2041C119.0503,100.1792,119.6924,102.5063,119.6924,105.6919z
			 M115.2549,105.6948c0-1.1367-0.0806-2.0586-0.2412-2.7637c-0.1611-0.7041-0.3896-1.248-0.6865-1.6309
			s-0.668-0.6426-1.1133-0.7793c-0.4453-0.1357-0.9526-0.2041-1.5215-0.2041c-0.5693,0-1.0762,0.0684-1.5215,0.2041
			c-0.4453,0.1367-0.8164,0.3965-1.1133,0.7793s-0.5259,0.9268-0.6865,1.6309c-0.1611,0.7051-0.2412,1.6143-0.2412,2.7266
			c0,1.1377,0.0801,2.0527,0.2412,2.7441c0.1606,0.6934,0.3896,1.2363,0.6865,1.6328c0.2969,0.3945,0.668,0.6611,1.1133,0.7969
			c0.4453,0.1367,0.9521,0.2041,1.5215,0.2041c0.5938,0,1.1133-0.0674,1.5586-0.2041c0.4453-0.1357,0.8164-0.3955,1.1133-0.7793
			c0.2969-0.3828,0.5195-0.9258,0.668-1.6309S115.2549,106.8081,115.2549,105.6948z"/>
		<path d="M139.2637,99.9526c-0.2227,0.0742-0.5005,0.1426-0.8345,0.2051s-0.6738,0.1172-1.02,0.167
			c-0.3467,0.0498-0.6865,0.0869-1.0205,0.1113s-0.6118,0.0371-0.8345,0.0371v0.0371c0.1719,0.4453,0.3442,0.915,0.5161,1.4092
			s0.2583,1.0625,0.2583,1.7051c0,1.3105-0.1606,2.4219-0.481,3.3369c-0.3208,0.915-0.7832,1.6562-1.3877,2.2246
			s-1.332,0.9824-2.1831,1.2412c-0.8511,0.2598-1.7944,0.3896-2.8301,0.3896c-0.2222,0-0.4502-0.0049-0.6846-0.0156
			s-0.4502-0.0264-0.6475-0.0469l-0.5181,0.5068c-0.1973,0.1934-0.2959,0.4229-0.2959,0.6885s0.1846,0.3984,0.5547,0.3984h4.1069
			c1.0854,0,2.0044,0.1299,2.7568,0.3877c0.752,0.2598,1.3628,0.6104,1.832,1.0537s0.8149,0.96,1.0376,1.5518
			c0.2222,0.5908,0.3335,1.2188,0.3335,1.8848c0,0.9844-0.1416,1.8164-0.4248,2.4941c-0.2832,0.6768-0.6587,1.2373-1.1265,1.6816
			c-0.4434,0.418-0.9546,0.7559-1.5332,1.0156c-0.5791,0.2578-1.1821,0.4492-1.8101,0.5723s-1.2686,0.2031-1.9209,0.2402
			s-1.2744,0.0557-1.8652,0.0557c-0.8867,0-1.7485-0.0498-2.5854-0.1475c-0.8374-0.0996-1.5762-0.3086-2.2163-0.6279
			c-0.6406-0.3203-1.1577-0.7754-1.5518-1.3662s-0.5908-1.3779-0.5908-2.3623c0-0.7139,0.1904-1.3975,0.5723-2.0488
			c0.3818-0.6533,0.8682-1.1758,1.459-1.5693l0.0371-0.0742c-0.3467-0.1973-0.6621-0.4629-0.9463-0.7949
			c-0.2847-0.333-0.4268-0.7461-0.4268-1.2402c0-0.5176,0.0928-0.9561,0.2783-1.3145c0.1855-0.3574,0.4883-0.7832,0.9092-1.2764
			l0.7773-0.9248v-0.0371c-0.7163-0.5684-1.2969-1.3203-1.7422-2.2578s-0.668-2.1465-0.668-3.627
			c0-1.3086,0.166-2.4121,0.499-3.3125s0.8076-1.6348,1.4238-2.2021s1.3438-0.9814,2.1821-1.2402
			c0.8379-0.2588,1.7749-0.3887,2.8105-0.3887c0.3452,0,0.6904,0.0186,1.0356,0.0557s0.6904,0.0801,1.0356,0.1299
			c0.4683,0.0742,0.875,0.1611,1.2202,0.2598s0.752,0.1484,1.2207,0.1484c0.2959,0,0.6533-0.0127,1.0723-0.0381
			s0.8628-0.0625,1.3315-0.1133c0.4683-0.0508,0.9365-0.1074,1.4053-0.1709c0.4683-0.0635,0.8999-0.1328,1.2944-0.209
			L139.2637,99.9526z M133.7349,117.1235c0-0.2959-0.1108-0.5664-0.3315-0.8115c-0.2207-0.2471-0.6133-0.3701-1.1772-0.3701h-4.4531
			c-0.3926,0.2705-0.7056,0.5479-0.9385,0.8311c-0.2334,0.2832-0.3496,0.6709-0.3496,1.1631c0,0.2705,0.0366,0.4863,0.1104,0.6465
			c0.0732,0.1602,0.1963,0.3262,0.3682,0.499c0.2451,0.2461,0.6196,0.3926,1.1226,0.4434c0.5029,0.0488,0.9507,0.0732,1.3433,0.0732
			c0.7109,0,1.3857-0.0439,2.0239-0.1289c0.6377-0.0869,1.1777-0.3271,1.6191-0.7207c0.1963-0.1973,0.3555-0.4189,0.4785-0.665
			C133.6733,117.8374,133.7349,117.5171,133.7349,117.1235z M132.2349,103.519c0-0.7168-0.0679-1.29-0.2031-1.7227
			c-0.1353-0.4316-0.3198-0.7646-0.5532-0.999s-0.5225-0.3887-0.8662-0.4629c-0.3442-0.0742-0.7251-0.1113-1.1431-0.1113
			s-0.7993,0.0371-1.1431,0.1113c-0.3442,0.0742-0.6333,0.2285-0.8667,0.4629s-0.418,0.5674-0.5532,0.999
			c-0.1353,0.4326-0.2026,1.0059-0.2026,1.7227c0,0.7646,0.0737,1.3818,0.2212,1.8506c0.1475,0.4697,0.3501,0.8271,0.6084,1.0732
			c0.2578,0.248,0.5527,0.4082,0.8848,0.4824s0.6821,0.1104,1.0513,0.1104c0.3687,0,0.7188-0.0361,1.0508-0.1104
			s0.627-0.2344,0.8853-0.4824c0.2578-0.2461,0.4609-0.6035,0.6084-1.0732C132.1611,104.9009,132.2349,104.2837,132.2349,103.519z"
			/>
		<path d="M151.4038,101.1323c-0.7158-0.2217-1.2583-0.3516-1.6284-0.3887s-0.6782-0.0547-0.9248-0.0547
			c-0.4443,0-0.9067,0.1416-1.3877,0.4258c-0.481,0.2832-0.894,0.6719-1.2393,1.166v12.2549h-4.375V96.8022h3.5596l0.3335,1.7383
			h0.0742c0.2964-0.543,0.7222-1.0176,1.2773-1.4248c0.5547-0.4072,1.2642-0.6113,2.1274-0.6113
			c0.2959,0,0.6162,0.0068,0.9619,0.0186c0.3452,0.0127,0.8384,0.1055,1.48,0.2773L151.4038,101.1323z"/>
		<path d="M163.334,114.5776l-0.2588-0.9258l-0.0742,0.0371c-0.8394,0.4941-1.6294,0.8203-2.3696,0.9805
			c-0.7407,0.1602-1.543,0.2412-2.4067,0.2412c-1.4316,0-2.6289-0.4443-3.5913-1.3311c-0.9629-0.8887-1.4438-2.1465-1.4438-3.7744
			c0-1.0361,0.123-1.8994,0.3696-2.5889c0.2466-0.6914,0.604-1.2715,1.0723-1.7402c0.4438-0.418,0.9614-0.7461,1.5532-0.9805
			s1.2266-0.4121,1.9043-0.5352s1.3926-0.21,2.1445-0.2598c0.752-0.0488,1.4976-0.0859,2.2373-0.1113v-1.8496
			c0-0.4688-0.1606-0.8379-0.481-1.1094c-0.3208-0.2715-0.9497-0.4072-1.8872-0.4072c-0.7402,0-1.5049,0.0811-2.2939,0.2412
			c-0.7896,0.1602-1.7764,0.4121-2.96,0.7578l-0.2588-4.0059c0.5918-0.1484,1.1279-0.2725,1.6094-0.3711
			c0.481-0.0996,0.9434-0.1738,1.3877-0.2236c0.4438-0.0498,0.8877-0.0869,1.332-0.1113c0.4438-0.0244,0.937-0.0371,1.48-0.0371
			c0.8633,0,1.6777,0.0742,2.4443,0.2217c0.7661,0.1484,1.4463,0.4023,2.0405,0.7598c0.5938,0.3574,1.064,0.8398,1.4106,1.4434
			c0.3467,0.6055,0.52,1.3643,0.52,2.2773v13.4023H163.334z M162.4766,106.6831c-0.3701,0-0.7715,0.0137-1.2031,0.0371
			c-0.4321,0.0254-0.8457,0.0742-1.2402,0.1484c-0.395,0.0742-0.7529,0.167-1.0737,0.2773
			c-0.3208,0.1113-0.5801,0.2539-0.7773,0.4258c-0.3701,0.3203-0.5552,0.8633-0.5552,1.6279c0,0.6416,0.1357,1.1279,0.4072,1.4619
			c0.2715,0.332,0.728,0.499,1.3696,0.499c0.3208,0,0.5923-0.0059,0.8145-0.0186c0.2217-0.0117,0.4316-0.0488,0.6289-0.1104
			s0.4194-0.1543,0.6665-0.2783c0.2471-0.123,0.5557-0.2949,0.9258-0.5176L162.4766,106.6831z"/>
		<path d="M185.708,105.9175c0,1.5547-0.1299,2.8984-0.3896,4.0312c-0.2598,1.1348-0.6797,2.0723-1.2598,2.8105
			c-0.5801,0.7402-1.3516,1.2891-2.3154,1.6465s-2.1494,0.5361-3.5576,0.5361c-0.6426,0-1.1602-0.0371-1.5557-0.1104
			c-0.3955-0.0752-0.8271-0.1738-1.2969-0.2969l-0.0625,0.0371v8.5889h-4.375V96.894h3.5186l0.2588,0.8516h0.0732
			c0.7168-0.4443,1.4512-0.7461,2.2041-0.9062s1.5488-0.2412,2.3887-0.2412c1.21,0,2.2217,0.2158,3.0361,0.6475
			s1.4688,1.0479,1.9629,1.8496c0.4941,0.8008,0.8457,1.7744,1.0547,2.9209C185.6035,103.1626,185.708,104.4634,185.708,105.9175z
			 M181.2705,105.9116c0-1.1074-0.0557-2.0117-0.167-2.7129s-0.2842-1.2617-0.5186-1.6797
			c-0.2344-0.4189-0.5186-0.708-0.8516-0.8682s-0.7217-0.2402-1.167-0.2402c-0.7891,0-1.4375,0.1045-1.9434,0.3135
			c-0.5068,0.209-0.957,0.4492-1.3525,0.7207v9.2305c0.5928,0.1973,1.0674,0.332,1.4258,0.4062s0.8584,0.1104,1.5,0.1104
			c0.5674,0,1.043-0.0557,1.4258-0.166s0.6973-0.3506,0.9443-0.7197s0.4258-0.9043,0.5371-1.6064
			C181.2148,107.9985,181.2705,107.0698,181.2705,105.9116z"/>
		<path d="M203.4609,114.5356h-4.375v-12.9443c0-0.4688-0.1543-0.8135-0.4619-1.0352s-0.6338-0.333-0.9775-0.333
			c-0.9609,0-1.7607,0.1172-2.4004,0.3516s-1.1934,0.499-1.6602,0.7949v13.166h-4.375v-26.625h4.4062v9.584h0.0938
			c0.3926-0.1963,0.75-0.3564,1.0703-0.4795s0.6465-0.2207,0.9785-0.2949s0.6719-0.123,1.0156-0.1475
			c0.3457-0.0244,0.7383-0.0371,1.1816-0.0371c0.5918,0,1.2129,0.0742,1.8652,0.2217c0.6523,0.1484,1.25,0.3945,1.791,0.7393
			c0.542,0.3447,0.9854,0.8193,1.3301,1.4229s0.5176,1.3496,0.5176,2.2363V114.5356z"/>
		<path d="M207.3789,93.7231v-4.75h5.0312v4.75H207.3789z M207.75,114.5356V96.812h4.375v17.7236H207.75z"/>
		<path d="M228.5625,114.4351c-0.9375,0.1729-1.8438,0.29-2.7188,0.3516c-0.877,0.0615-1.5859,0.0928-2.1279,0.0928
			c-2.7627,0-4.7852-0.7158-6.0674-2.1475c-1.2812-1.4316-1.9219-3.7402-1.9219-6.9258s0.6406-5.5371,1.9219-7.0547
			c1.2822-1.5195,3.3047-2.2783,6.0674-2.2783c0.542,0,1.251,0.0312,2.1279,0.0928c0.875,0.0615,1.7812,0.166,2.7188,0.3145
			l-0.2588,3.8867c-0.9619-0.1729-1.8135-0.2959-2.5537-0.3701s-1.418-0.1113-2.0342-0.1113c-0.5674,0-1.0732,0.0742-1.5166,0.2227
			c-0.4453,0.1484-0.8145,0.4268-1.1113,0.833c-0.2949,0.4082-0.5234,0.9697-0.6836,1.6855
			c-0.1602,0.7168-0.2402,1.6426-0.2402,2.7793c0,1.1113,0.0801,2.0137,0.2402,2.7051s0.3887,1.2285,0.6836,1.6113
			c0.2969,0.3828,0.666,0.6357,1.1113,0.7598c0.4434,0.123,0.9492,0.1846,1.5166,0.1846c0.6162,0,1.2939-0.0361,2.0342-0.1104
			s1.5918-0.1973,2.5537-0.3711L228.5625,114.4351z"/>
		<path d="M243.2852,110.1948c0,0.8613-0.1973,1.5879-0.5918,2.1797c-0.3926,0.5898-0.9043,1.0703-1.5312,1.4395
			s-1.3418,0.6348-2.1416,0.7949c-0.8008,0.1592-1.5957,0.2393-2.3848,0.2393c-0.543,0-1.3018-0.0244-2.2764-0.0732
			c-0.9746-0.0498-1.9414-0.1484-2.9043-0.2949l0.2598-3.8369c0.9619,0.1475,1.875,0.2705,2.7383,0.3701
			c0.8633,0.0977,1.5898,0.1475,2.1826,0.1475c0.2217,0,0.4678-0.0059,0.7393-0.0186c0.2715-0.0117,0.5312-0.0547,0.7773-0.1289
			s0.4502-0.1797,0.6104-0.3145c0.1602-0.1367,0.2412-0.3145,0.2412-0.5371c0.0234-0.4434-0.0625-0.7705-0.2598-0.9805
			c-0.1973-0.209-0.4688-0.4131-0.8145-0.6104l-3.9238-2.4414c-0.3213-0.2217-0.6729-0.4678-1.0557-0.7393
			s-0.7344-0.5986-1.0557-0.9805c-0.3203-0.3828-0.5859-0.8398-0.7949-1.3691c-0.2109-0.5312-0.3145-1.1777-0.3145-1.9434
			c0-0.8867,0.1973-1.627,0.5928-2.2188s0.9082-1.0674,1.5381-1.4248c0.6309-0.3574,1.334-0.6104,2.1123-0.7588
			c0.7783-0.1475,1.5371-0.2217,2.2773-0.2217c0.542,0,1.2451,0.0127,2.1084,0.0371s1.7764,0.124,2.7383,0.2969l-0.2959,3.8975
			c-0.9619-0.1484-1.8076-0.2656-2.5342-0.3516c-0.7285-0.0859-1.3877-0.1299-1.9795-0.1299c-0.3213,0-0.6357,0-0.9443,0
			s-0.5732,0.0615-0.7949,0.1846c-0.2959,0.0986-0.4434,0.3574-0.4434,0.7754c0,0.2959,0.0547,0.5488,0.166,0.7578
			c0.1104,0.209,0.3506,0.4365,0.7197,0.6826l3.4717,2.1787c0.4922,0.2969,0.96,0.5977,1.4033,0.9053s0.8428,0.6709,1.2002,1.0889
			c0.3574,0.4199,0.6406,0.9062,0.8496,1.459C243.1797,108.8101,243.2852,109.4565,243.2852,110.1948z"/>
	</g>
</g>
<g>
</g>
<g>
</g>
<g>
</g>
<g>
</g>
<g>
</g>
<g>
</g>
</svg>
